<?xml version="1.0" encoding="UTF-8"?>
<svg width="118px" height="127px" viewBox="0 0 118 127" version="1.1" xmlns="http://www.w3.org/2000/svg" xmlns:xlink="http://www.w3.org/1999/xlink">
    <!-- Generator: Sketch 63.1 (92452) - https://sketch.com -->
    <title>Desktop HD</title>
    <desc>Created with Sketch.</desc>
    <g id="Page-1" stroke="none" stroke-width="1" fill="none" fill-rule="evenodd">
        <g id="Desktop-HD" transform="translate(-335.000000, -427.000000)" fill="#000000" fill-rule="nonzero">
            <g id="noun_Cook_1109746" transform="translate(352.500000, 435.800000)">
                <path d="M57.6684049,35.6810245 C57.4622301,34.7118362 56.8981626,33.982722 56.1212559,33.6804064 C56.1004162,33.6720705 56.0784648,33.6720705 56.0576251,33.664846 C56.453303,31.6953485 57.3007914,26.2875666 55.9253621,21.335481 C55.9509255,21.3071389 55.9817683,21.2854655 56.0056646,21.2554563 C56.3852263,20.7814209 56.5274925,20.1695651 56.3952295,19.5771599 L55.6911231,16.4095145 C55.5424661,15.7420861 55.0745437,15.2297056 54.4715796,14.9946329 L53.4937775,9.31621174 C54.7441638,8.39703883 55.4499374,7.12553485 55.4499374,5.75622288 C55.4499374,3.07317163 52.7213166,0.890275003 49.3669468,0.890275003 C47.8209136,0.890275003 46.3576836,1.35930884 45.2390047,2.19512264 C44.1203257,1.35930884 42.6570958,0.890275003 41.1105069,0.890275003 C39.5644737,0.890275003 38.1012437,1.35930884 36.9825648,2.19512264 C35.8633301,1.35930884 34.4001002,0.890275003 32.854067,0.890275003 C29.4996972,0.890275003 26.7710763,3.07317174 26.7710763,5.75622288 C26.7710763,7.12553485 27.47685,8.39703883 28.7272363,9.31621174 L27.7494341,14.9951886 C27.1467479,15.2302613 26.6791034,15.7426418 26.5304464,16.4100703 L25.8257843,19.5766043 C25.6935212,20.1695653 25.8357874,20.781421 26.2159047,21.2554564 C26.2225735,21.2637923 26.231743,21.2699053 26.2386895,21.2776855 C24.9074449,26.3398051 25.8444011,31.8854075 26.2120146,33.6537316 C26.1756145,33.6654019 26.1364357,33.6659576 26.1003135,33.6798508 C24.5798437,34.272256 24.0241164,36.3679035 24.8354783,38.4518808 C25.5045738,40.1690781 26.8638828,41.2649722 28.1720647,41.2649722 C28.2996041,41.2649722 28.4265878,41.2516347 28.5527379,41.2299614 C29.6686383,44.6504627 31.4669717,47.4379906 34.3289671,49.169081 L34.3289671,53.0647292 L34.3289671,53.0686193 L32.9352031,53.0686193 L33.220569,54.845835 L33.882996,58.97211 L34.6407301,63.693013 L47.5808394,63.693013 L49.1880027,53.6788078 L49.2858107,53.0686193 L47.8920467,53.0686193 L47.8920467,49.1940888 C50.760155,47.4652212 52.5604335,44.6660231 53.6760561,41.2294056 C53.7972046,41.248856 53.9194646,41.2627493 54.0433918,41.2627493 C54.6018977,41.2627493 55.1831883,41.0654662 55.7200209,40.6836815 C56.430796,40.1774139 57.0220899,39.3849468 57.3855398,38.4518808 C57.7489854,37.518259 57.849572,36.5346216 57.6684049,35.6810245 Z M28.4782705,5.75622299 C28.4782705,4.0145738 30.4410992,2.59746927 32.854067,2.59746927 C34.247831,2.59746927 35.5332281,3.08150775 36.3801564,3.92454594 C36.7135928,4.25631511 37.2515368,4.25631511 37.5849732,3.92454594 C38.4313457,3.080952 39.716743,2.59746927 41.110507,2.59746927 C42.5048267,2.59746927 43.7902239,3.080952 44.6365964,3.92454594 C44.9700328,4.25631511 45.5079768,4.25631511 45.8414132,3.92454594 C46.6877858,3.080952 47.973183,2.59746927 49.366947,2.59746927 C51.7799148,2.59746927 53.7427435,4.0145738 53.7427435,5.75622299 C53.7427435,6.68206466 53.1520054,7.56567102 52.1211313,8.17974955 C51.8182599,8.3603609 51.6570991,8.70935759 51.7171176,9.05779865 L52.7143701,14.8512553 L29.5069215,14.8512553 L30.5044519,9.05779865 C30.5644705,8.70991334 30.4033095,8.3603609 30.1004382,8.17974955 C29.0695642,7.5656709 28.4782705,6.68206466 28.4782705,5.75622299 Z M26.4259696,37.8316891 C25.95249,36.6157578 26.1903412,35.476517 26.7193936,35.2708979 C26.7849695,35.2453345 26.8533239,35.2342199 26.9216784,35.2342199 C27.0514407,35.2342199 27.181203,35.2747879 27.2962386,35.3248033 C27.4807401,36.7935905 27.7324845,38.2051377 28.0678659,39.5405504 C27.5352013,39.4677502 26.8188688,38.8392226 26.4259696,37.8316891 Z M46.1848524,52.8996781 C46.1773501,52.9107926 46.1617897,52.9235744 46.1512309,52.9358004 C46.1153865,52.9769242 46.0650932,53.020271 45.9947936,53.0686192 C45.7144292,53.262568 45.1600913,53.4987521 44.3367814,53.6910337 C43.5206959,53.8816482 42.4553667,54.026693 41.1105068,54.026693 C39.7534208,54.026693 38.6814229,53.8794253 37.863948,53.6910337 C36.9945128,53.4909718 36.4185015,53.2453404 36.1662013,53.0686192 C36.1003476,53.0230495 36.0595016,52.9835929 36.0361611,52.9496935 L36.0361611,52.9358004 L36.0361611,50.0210108 C37.5027253,50.6145276 39.1968599,50.9807518 41.1538534,51.0796713 C43.0750026,50.982419 44.7394057,50.621752 46.1848524,50.0404614 L46.1848524,52.8996781 Z M53.3306714,34.3506135 C53.1042126,36.566298 52.7479914,38.5658048 52.2256077,40.3324618 C51.3383892,43.333389 49.9582405,45.6557732 47.8775976,47.1968049 C47.6102928,47.3946438 47.3293726,47.5780338 47.0384495,47.7497535 C46.7589186,47.9148044 46.4868902,48.0876357 46.1848524,48.2282347 C44.7733051,48.88566 43.1100134,49.2746691 41.1538534,49.3747 C40.0307286,49.3174601 39.0220836,49.1479632 38.0831825,48.9073334 C37.3718516,48.7256106 36.6930308,48.5099884 36.0795079,48.2265676 C35.6385383,48.0226157 35.2261887,47.7880988 34.8327338,47.5324642 C32.4725601,46.0019913 30.9570919,43.5490112 30.0006852,40.3291274 C29.4769122,38.5658048 29.1198575,36.5712997 28.8928429,34.3611724 C28.7844761,33.3069578 28.6963933,32.2182881 28.6408206,31.0695999 C28.8089281,29.7580835 29.0895704,28.695533 29.4324541,27.8419359 C29.9187154,27.7552424 30.865119,27.5385088 31.9760178,27.0372428 C32.1888613,27.2823185 32.5061815,27.4273633 32.8468424,27.4084686 C33.0124491,27.4006885 35.1675594,27.277317 37.4916108,26.3981565 C37.4955009,26.458175 37.5043926,26.519305 37.5188415,26.5793236 C37.6327656,27.057249 38.0551183,27.3984656 38.5463811,27.4095801 C38.7419971,27.4134702 42.693218,27.4662643 45.2206656,24.7259731 C46.2187517,27.0455787 48.3788635,30.6928168 52.6707452,33.0107552 L53.3706836,33.9760534 C53.3587357,34.1027592 53.3434532,34.2250192 53.3306714,34.3506135 Z M53.5971427,20.2940483 L27.7697182,20.2940483 C27.7480448,20.2940483 27.7358188,20.284045 27.7169241,20.280155 C27.7021973,20.2768206 27.6880263,20.274042 27.6749668,20.2684848 C27.6157818,20.2462556 27.5691007,20.2140234 27.5474274,20.1873485 C27.515751,20.1473361 27.4662912,20.0639771 27.4918547,19.9472744 L27.803062,18.5496203 L28.1576159,16.9557946 L28.1965168,16.7812962 C28.2148559,16.70016 28.2704286,16.6440316 28.3382273,16.6056864 C28.36518,16.590126 28.3946335,16.5806786 28.4263101,16.5751214 C28.4435376,16.571787 28.4563194,16.5584496 28.4743805,16.5584496 L29.212942,16.5584496 L53.008072,16.5584496 L53.6171491,16.5584496 L53.7471893,16.5584496 C53.7977604,16.5584496 53.8408293,16.5823459 53.8827867,16.6062421 C53.9505854,16.6451431 54.0072696,16.7012715 54.0250529,16.7807405 L54.1400884,17.2975669 L54.4182299,18.5496205 L54.7291594,19.948386 C54.7547228,20.0639772 54.7052631,20.1478921 54.6735867,20.1873486 C54.6474675,20.2201366 54.5871711,20.2623719 54.5043678,20.2795994 C54.4857509,20.2840453 54.473247,20.2940483 54.4512958,20.2940483 L54.438514,20.2940483 L53.5971427,20.2940483 L53.5971427,20.2940483 Z M55.795044,37.8316891 C55.5544141,38.4496579 55.1659607,38.9820446 54.7297148,39.2926961 C54.621348,39.3693864 54.3957227,39.5038725 54.1584272,39.5405504 C54.4921414,38.2056935 54.7427743,36.7947019 54.9264423,35.3270263 C55.1392858,35.2358871 55.340459,35.2081007 55.50162,35.2708979 C55.8306105,35.3987152 55.9584278,35.8482985 55.9984401,36.0355786 C56.1095856,36.5596294 56.0356739,37.2142761 55.795044,37.8316891 Z M39.2932787,39.8434218 L39.2932787,37.7138749 C39.2932787,37.2420624 39.6756191,36.8602778 40.1468758,36.8602778 C40.6181325,36.8602778 41.0004729,37.2420624 41.0004729,37.7138749 L41.0004729,39.5777841 L42.0746936,39.5777841 C42.5459503,39.5777841 42.9282907,39.9601244 42.9282907,40.4313812 C42.9282907,40.9026379 42.5459503,41.2849782 42.0746936,41.2849782 L40.7342794,41.2849782 C39.9395895,41.2849782 39.2932787,40.6381118 39.2932787,39.8434218 Z M35.7560746,34.9580234 C35.7560746,35.7749424 35.0936477,36.4373694 34.2764508,36.4373694 C33.459254,36.4373694 32.796827,35.7749424 32.796827,34.9580234 C32.796827,34.1405486 33.459254,33.4781216 34.2764508,33.4781216 C35.0936477,33.4781216 35.7560746,34.1405486 35.7560746,34.9580234 Z M49.4244645,34.9580234 C49.4244645,35.7749424 48.7620376,36.4373694 47.9448407,36.4373694 C47.1276439,36.4373694 46.4652169,35.7749424 46.4652169,34.9580234 C46.4652169,34.1405486 47.1276439,33.4781216 47.9448407,33.4781216 C48.7620376,33.4781216 49.4244645,34.1405486 49.4244645,34.9580234 Z M44.9233515,44.5237568 C44.9233515,45.8208242 42.9538541,46.2820779 41.1105068,46.2820779 C39.2671594,46.2820779 37.297662,45.8208243 37.297662,44.5237568 C37.297662,44.0525001 37.6800023,43.6701597 38.151259,43.6701597 C38.5185947,43.6701597 38.8314693,43.9024538 38.952062,44.2269984 C39.2204783,44.3692646 39.9968293,44.5748837 41.1105068,44.5748837 C42.2241842,44.5748837 43.0005351,44.3692646 43.2689515,44.2269984 C43.3895442,43.9024536 43.7024188,43.6701597 44.0697545,43.6701597 C44.5410112,43.6701597 44.9233515,44.0525001 44.9233515,44.5237568 Z M36.3793227,13.2457593 C36.2139938,13.0723723 36.1156301,12.8384112 36.1406379,12.5816652 L36.1787052,12.1876546 L36.5718823,8.12584398 C36.617452,7.65681015 37.0409161,7.31781659 37.5038369,7.35894039 C37.9728708,7.40451007 38.316866,7.82130547 38.2712963,8.29033931 L37.9084063,12.0387197 L37.8400519,12.7461604 C37.8261587,12.8895381 37.7680852,13.014021 37.6936178,13.1262779 C37.5394035,13.3596833 37.2843247,13.5175099 36.9914563,13.5175099 C36.9636699,13.5175099 36.9358836,13.5158428 36.9080972,13.513064 C36.6958094,13.4925022 36.5157538,13.389137 36.3793227,13.2457593 Z M44.3076058,11.9887042 L43.9502732,8.29033931 C43.9052593,7.82130547 44.2486987,7.40451007 44.7177325,7.35894039 C45.1817647,7.31559371 45.6041175,7.65681026 45.6496872,8.12584398 L46.0431421,12.1982134 L46.0803757,12.5816652 C46.1059392,12.8484143 45.9975724,13.0890442 45.8202954,13.2635426 C45.6858094,13.3958056 45.5152012,13.4936136 45.3129164,13.5130641 C45.28513,13.5158428 45.2573437,13.51751 45.2295573,13.51751 C44.9189058,13.51751 44.6463215,13.3446788 44.4971088,13.0873771 C44.4376459,12.9845676 44.3931878,12.8717549 44.3809617,12.7461605 L44.3076058,11.9887042 Z M82.0984532,99.9892276 C82.0931738,99.9786688 82.0959524,99.9664428 82.0903952,99.9564397 L72.8208644,82.6977738 C72.4952082,82.0931426 71.8666807,81.717471 71.1803574,81.717471 L63.0986937,81.717471 L56.1684926,56.9681573 C55.7914317,55.6221859 54.9086589,54.556301 53.7855341,53.9111016 C53.7093995,53.8671992 53.6274297,53.8366342 53.54935,53.7966218 L51.65043,65.6280552 L53.9219652,80.2236761 C53.842774,80.213673 53.7644165,80.1981127 53.6838361,80.1981127 L52.0358269,80.1981127 L38.7642263,80.1981127 L38.850364,79.6540558 C38.9128833,79.6151548 38.9790149,79.5840342 39.039867,79.5412431 C39.5836461,79.1594585 39.9973851,78.6504124 40.289142,78.0735674 C40.4016768,77.8507207 40.4925381,77.6184268 40.5620041,77.3750183 C40.6011828,77.2383093 40.6511982,77.1060463 40.6759282,76.9637801 L40.9865796,75.1876756 L41.2972311,73.4104599 C41.3211274,73.273751 41.3186266,73.1375978 41.3283519,73.0008889 C41.3458573,72.7535902 41.3411337,72.509626 41.3133473,72.2667732 C41.238324,71.6143494 41.0202011,70.9841547 40.6320256,70.431206 C40.5514452,70.3161705 40.4522479,70.2205854 40.3613864,70.1161086 L40.9398985,66.463869 C41.1171755,65.3463015 40.3547177,64.2965327 39.2371501,64.1198115 C38.1140254,63.941423 37.0703695,64.705548 36.8930926,65.8225599 L36.466294,68.5178371 L34.5017982,68.1743977 C34.0205383,68.0899271 33.5476145,68.1088219 33.0935853,68.1932925 L30.2510403,67.6820233 L30.5708614,65.6263882 L30.164347,63.0944948 L28.6602711,53.7254889 L28.4888292,52.657381 C28.4843834,52.6295946 28.4871621,52.6029197 28.4838277,52.5751334 C27.6063344,52.6562696 26.7366212,52.9441364 25.9686062,53.4954178 L9.27622858,65.4935694 C7.60626811,66.6939403 6.81602398,68.7773618 7.27060892,70.7829815 C7.72463812,72.7891569 9.33513565,74.3290772 11.3590944,74.6930785 L27.2442782,77.5489609 L27.2442782,80.6882642 C27.1803696,80.7432811 27.1131265,80.7938523 27.0561645,80.8572053 C26.8333179,81.1033925 26.6871616,81.4012622 26.6082483,81.7174711 L11.0417741,81.7174711 C10.3554509,81.7174711 9.72636765,82.0931427 9.40071148,82.6988855 L0.131179673,99.9564398 C0.125900232,99.9658872 0.128401044,99.9775575 0.123677351,99.9875606 C0.0675489049,100.101485 0.0294815484,100.224856 0.0294815484,100.359898 L0.0294815484,104.208865 C0.0294815484,105.24863 0.875298484,106.093892 1.91450842,106.093892 L80.2892799,106.093892 C81.3245999,106.093892 82.1704167,105.252521 82.1743068,104.217756 L82.1920962,100.364344 C82.1920962,100.22819 82.1545817,100.103707 82.0984532,99.9892276 Z M30.9462552,75.2632546 L31.5670026,71.7104903 C31.7609515,70.6034815 32.7262497,69.8215733 33.8138079,69.8215733 C33.9432923,69.8215733 34.0749998,69.8326878 34.2078186,69.8560283 L36.1989893,70.2039136 L37.4952231,70.4306504 L37.7605829,70.4767757 C38.3607684,70.5818082 38.8848192,70.914133 39.2349274,71.4126204 C39.2677153,71.4593014 39.2893887,71.5115399 39.3182865,71.5598881 L38.0298328,71.3348185 L36.0739507,70.9930462 L35.7738579,70.9408079 C35.3137157,70.8607832 34.8674668,71.1697676 34.7863305,71.6343555 C34.7051943,72.0989435 35.0158459,72.5413024 35.4804339,72.6224387 L35.8069236,72.6791229 L38.4677457,73.1442666 L39.5766996,73.3382153 L39.4519388,74.0528806 L38.4457946,73.876715 L35.6932775,73.3960109 L35.3548396,73.3371038 C34.8941417,73.2581906 34.4484485,73.5660635 34.3673123,74.0306514 C34.286176,74.4952394 34.5968277,74.9375983 35.0614156,75.0187346 L35.4262505,75.0820875 L38.0251091,75.5361167 L39.1579591,75.7345113 L39.0329204,76.4486209 L37.6661093,76.2096582 L35.3126043,75.79842 L34.936377,75.7328442 C34.4745676,75.6533752 34.0299858,75.9623596 33.9488496,76.4269476 C33.8677134,76.8909798 34.178365,77.3333387 34.642953,77.4144749 L35.0455774,77.4850523 L36.2062138,77.6878928 L38.1868258,78.0335551 C38.1429234,78.0696774 38.1051339,78.1113569 38.0584528,78.1441448 C37.5605211,78.494253 36.9547784,78.6292947 36.354593,78.5248181 C36.3540373,78.5248181 36.3540373,78.5248181 36.3540373,78.5248181 L35.0075101,78.2897454 L34.9205388,78.274185 L32.8007172,77.9040707 C31.562001,77.6873369 30.7300773,76.5025263 30.9462552,75.2632546 Z M28.6755536,77.8062626 L30.0162456,78.0468925 C30.6042051,78.8288007 31.470306,79.4045342 32.507293,79.5857013 L34.6535117,79.9602615 L34.6157223,80.1981128 L28.5371775,80.1981128 C28.4565971,80.1981128 28.3785174,80.2136732 28.2993262,80.2236762 L28.6755536,77.8062626 Z M28.322111,82.0020033 C28.3548989,81.9664368 28.426032,81.9053068 28.5371774,81.9053068 L52.5140301,81.9053068 L53.683836,81.9053068 C53.7949815,81.9053068 53.8666702,81.9664368 53.8994581,82.0020033 C53.9316903,82.0386814 53.9850401,82.1159275 53.9739256,82.2276286 C53.9622553,82.3437756 53.9369697,82.4554768 53.9216873,82.5710681 C53.8841757,82.8578233 53.8461083,83.1451343 53.7883127,83.4246651 C53.7838668,83.4463385 53.7766425,83.4669004 53.7719188,83.4880181 C53.7455217,83.6119452 53.7088437,83.7314266 53.6788345,83.8536867 C53.5888066,84.2182438 53.4826627,84.5761321 53.359847,84.9262403 C52.1805938,88.282833 49.5286633,90.945878 46.1328919,92.2857364 C45.8633642,92.3918803 45.5882792,92.4869097 45.3098598,92.5763818 C43.9908412,92.9992902 42.5817947,93.2399201 41.1105068,93.2399201 C39.6386631,93.2399201 38.2290609,92.9992902 36.9094865,92.575826 C36.631345,92.4863539 36.3568158,92.3918803 36.0875659,92.2851807 C32.3375183,90.8052789 29.4941398,87.7115453 28.5421789,83.8536867 C28.5121696,83.7314266 28.4754916,83.6119454 28.4490946,83.4880181 C28.4443709,83.4669004 28.4371465,83.4463385 28.4327007,83.4246651 C28.374905,83.1445785 28.3368377,82.8578233 28.2993261,82.5710681 C28.2840437,82.4560325 28.2587581,82.3443313 28.2470878,82.2276286 C28.2359733,82.1164831 28.2893231,82.0386814 28.322111,82.0020033 Z M44.5771348,94.5436561 L44.5771348,95.1238354 C44.5776892,95.3027796 44.3981893,95.5306278 44.233694,95.5595255 L44.2320269,95.5595255 C42.1608314,95.9313071 40.0601824,95.9318628 37.9912098,95.5600813 C37.8222687,95.5295163 37.6433245,95.3050025 37.643879,95.1216125 L37.6558283,94.5464348 C38.7658935,94.7992907 39.9190276,94.9471141 41.1105069,94.9471141 C42.3064319,94.9471141 43.4634561,94.7981793 44.5771348,94.5436561 Z M25.0761081,66.7517358 L27.244278,65.1934766 L27.244278,67.1413006 L25.0761081,66.7517358 Z M10.9045094,83.5069127 C10.93174,83.4563416 10.9845341,83.4246651 11.0417741,83.4246651 L26.7041112,83.4246651 C27.5952199,88.3834195 31.1732698,92.3602038 35.936686,94.0551719 L35.936686,95.1199454 C35.9350189,96.1297018 36.7030338,97.0611007 37.6877826,97.2400449 C38.8231334,97.443441 39.9668201,97.5456949 41.1105068,97.5456949 C42.2541934,97.5456949 43.3978801,97.443441 44.5332309,97.2400449 C45.5185354,97.0644351 46.2871061,96.1335919 46.2843275,95.1221684 L46.2843275,94.055172 C49.6506454,92.8575798 52.426781,90.5224138 54.0814589,87.5037033 C54.7683378,86.2505383 55.2557106,84.8795591 55.5171803,83.4246651 L63.5768971,83.4246651 L71.1803575,83.4246651 C71.2375975,83.4246651 71.2898358,83.4563416 71.3170665,83.5069127 L79.9108329,99.5063006 L2.31074192,99.5063006 L10.9045094,83.5069127 Z M80.4671159,104.210532 C80.4665601,104.307784 80.3870911,104.386698 80.2892831,104.386698 L1.91451161,104.386698 C1.81670361,104.386698 1.73667888,104.307229 1.73667888,104.208865 L1.73667888,101.213495 L80.481009,101.213495 L80.4671159,104.210532 Z M17.2056229,87.0152189 C17.2145145,86.957979 17.2398001,86.9062964 17.2398001,86.8468336 L17.2398001,86.1555088 C17.2398001,85.5264255 16.7301982,85.0173794 16.1016707,85.0173794 L11.5972233,85.0173794 C10.9686958,85.0173794 10.4590939,85.5264255 10.4590939,86.1555088 L10.4590939,86.8468336 C10.4590939,86.9068521 10.4843795,86.9579791 10.4932711,87.0157747 C9.95893939,87.3731072 9.60577464,87.9816286 9.60577464,88.6712861 L9.60577464,95.4917268 C9.60577464,96.589844 10.4993841,97.4834533 11.5975011,97.4834533 L16.1016706,97.4834533 C17.1997877,97.4834533 18.0933971,96.5898438 18.0933971,95.4917268 L18.0933971,88.6712862 C18.0933971,87.9816286 17.7402326,87.3731074 17.2056229,87.0152189 Z M16.386203,95.4917269 C16.386203,95.648442 16.2583858,95.7762593 16.1016707,95.7762593 L11.5975013,95.7762593 C11.4407862,95.7762593 11.3129689,95.648442 11.3129689,95.4917269 L11.3129689,88.6712862 C11.3129689,88.5140154 11.4407862,88.3867539 11.5975013,88.3867539 L16.1016707,88.3867539 C16.2583858,88.3867539 16.386203,88.5140154 16.386203,88.6712862 L16.386203,95.4917269 Z M26.4809866,87.0152189 C26.4898782,86.957979 26.5151638,86.9062964 26.5151638,86.8468336 L26.5151638,86.1555088 C26.5151638,85.5264255 26.0055619,85.0173794 25.3770344,85.0173794 L20.872865,85.0173794 C20.2443396,85.0173794 19.7347377,85.5264255 19.7347377,86.1555088 L19.7347377,86.8468336 C19.7347377,86.9062964 19.7600233,86.9579791 19.7689149,87.0152189 C19.2343053,87.3731072 18.8808628,87.9816286 18.8808628,88.6712861 L18.8808628,95.4917268 C18.8808628,96.589844 19.7744723,97.4834533 20.8725871,97.4834533 L25.3773123,97.4834533 C26.4754294,97.4834533 27.3690388,96.5898438 27.3690388,95.4917268 L27.3690388,88.6712862 C27.3690388,87.9816286 27.0155963,87.3731074 26.4809866,87.0152189 Z M25.6618447,95.4917269 C25.6618447,95.648442 25.5340274,95.7762593 25.3773123,95.7762593 L20.8725871,95.7762593 C20.7158721,95.7762593 20.5880569,95.648442 20.5880569,95.4917269 L20.5880569,88.6712862 C20.5880569,88.5140154 20.7158721,88.3867539 20.8725871,88.3867539 L25.3773123,88.3867539 C25.5340274,88.3867539 25.6618447,88.5140154 25.6618447,88.6712862 L25.6618447,95.4917269 Z M62.452383,87.0157747 C62.4612746,86.957979 62.4865602,86.9062964 62.4865602,86.8468336 L62.4865602,86.1555088 C62.4865602,85.5264255 61.9769583,85.0173794 61.3484308,85.0173794 L56.8442571,85.0173794 C56.2157295,85.0173794 55.7061276,85.5264255 55.7061276,86.1555088 L55.7061276,86.8468336 C55.7061276,86.9062964 55.7311354,86.9579791 55.740027,87.0157747 C55.2056953,87.3731072 54.8525305,87.9816286 54.8525305,88.6712861 L54.8525305,89.3214871 L54.8525305,95.4917268 C54.8525305,96.589844 55.74614,97.4834533 56.8442571,97.4834533 L61.3484308,97.4834533 C62.4465479,97.4834533 63.3401573,96.5898438 63.3401573,95.4917268 L63.3401573,89.3609437 L63.3401573,88.6712862 C63.3401573,87.9816286 62.9869927,87.3731074 62.452383,87.0157747 Z M61.6329632,90.9464336 L61.6329632,95.4917268 C61.6329632,95.6484419 61.5051459,95.7762592 61.3484308,95.7762592 L56.8442571,95.7762592 C56.687542,95.7762592 56.5597247,95.6484419 56.5597247,95.4917268 L56.5597247,90.9225373 L56.5597247,88.6712862 C56.5597247,88.5140154 56.687542,88.3867539 56.8442571,88.3867539 L61.3484308,88.3867539 C61.5051459,88.3867539 61.6329632,88.5140154 61.6329632,88.6712862 L61.6329632,90.9464336 Z M71.7280268,87.0152189 C71.7369184,86.957979 71.762204,86.9062964 71.762204,86.8468336 L71.762204,86.1555088 C71.762204,85.5264255 71.2526021,85.0173794 70.6240746,85.0173794 L66.1196272,85.0173794 C65.4910997,85.0173794 64.9814978,85.5264255 64.9814978,86.1555088 L64.9814978,86.8468336 C64.9814978,86.9068521 65.0067834,86.9579791 65.015675,87.0157747 C64.4813433,87.3731072 64.1281785,87.9816286 64.1281785,88.6712861 L64.1281785,95.4917268 C64.1281785,96.589844 65.021788,97.4834533 66.1199051,97.4834533 L70.6240745,97.4834533 C71.7221916,97.4834533 72.615801,96.5898438 72.615801,95.4917268 L72.615801,88.6712862 C72.615801,87.9816286 72.2626365,87.3731074 71.7280268,87.0152189 Z M70.908607,95.4917269 C70.908607,95.648442 70.7807897,95.7762593 70.6240746,95.7762593 L66.1199052,95.7762593 C65.9631901,95.7762593 65.8353728,95.648442 65.8353728,95.4917269 L65.8353728,88.6712862 C65.8353728,88.5140154 65.9631901,88.3867539 66.1199052,88.3867539 L70.6240746,88.3867539 C70.7807897,88.3867539 70.908607,88.5140154 70.908607,88.6712862 L70.908607,95.4917269 Z M47.0245563,89.5226603 C46.811157,89.2120088 46.8900703,88.7868774 47.2007219,88.5729224 C48.3160666,87.8071302 49.1963385,86.8323846 49.7470642,85.7548295 C49.9182282,85.4186144 50.3300221,85.2852399 50.6656814,85.4575153 C51.0013407,85.6286793 51.1347152,86.0399176 50.9629955,86.3761325 C50.3094602,87.6559724 49.2758075,88.8046607 47.9742943,89.6988258 C47.8559244,89.779962 47.7214383,89.8188629 47.5880638,89.8188629 C47.3707744,89.8188629 47.1568194,89.7154977 47.0245563,89.5226603 Z M43.7452098,90.7952758 C43.6429559,90.4323858 43.8546881,90.0556029 44.217578,89.953349 C44.6682728,89.8266432 45.1106318,89.6704838 45.5313173,89.4898724 C45.8797582,89.3398261 46.2798819,89.5015427 46.4282611,89.8477607 C46.577196,90.1945345 46.4165908,90.5957697 46.0703727,90.7447045 C45.5941145,90.9492121 45.0956271,91.124822 44.5876924,91.2681995 C44.5254509,91.2848713 44.4632095,91.2937629 44.4020795,91.2937629 C44.1042095,91.2937629 43.830236,91.0970357 43.7452098,90.7952758 Z" id="Shape"></path>
            </g>
        </g>
    </g>
</svg>