<?xml version="1.0" encoding="UTF-8"?>
<svg width="119px" height="127px" viewBox="0 0 119 127" version="1.1" xmlns="http://www.w3.org/2000/svg" xmlns:xlink="http://www.w3.org/1999/xlink">
    <!-- Generator: Sketch 63.1 (92452) - https://sketch.com -->
    <title>Desktop HD Copy 2</title>
    <desc>Created with Sketch.</desc>
    <g id="Page-1" stroke="none" stroke-width="1" fill="none" fill-rule="evenodd">
        <g id="Desktop-HD" transform="translate(-594.000000, -427.000000)" fill="#000000" fill-rule="nonzero">
            <g id="noun_pharmacist_1144986" transform="translate(613.469854, 448.154099)">
                <path d="M79.668457,83.9544144 C79.6640625,83.9452591 79.6664428,83.934639 79.6616211,83.9256668 L70.6743164,67.1932449 C70.3725586,66.632698 69.7895508,66.2840652 69.1518555,66.2840652 L68.3547974,66.2840652 C69.4429322,64.5905838 69.4871827,62.3951492 68.4536133,60.6600418 L56.9086914,41.3011513 C55.7456055,39.3514443 54.8041992,38.5116005 50.8315391,38.5741005 L46.6020469,38.5739784 L46.6020469,36.659977 C49.539791,34.9335976 51.3158531,32.1087685 52.3789024,28.7081337 C52.5060386,28.7310829 52.6354332,28.7430458 52.7661094,28.7430458 C53.298336,28.7430458 53.854,28.5545692 54.3676757,28.1888466 C55.0541991,27.7000771 55.6264648,26.9325009 55.9790038,26.028204 C56.3305663,25.1234188 56.4282226,24.1707821 56.2534179,23.3460751 C56.0571288,22.4202938 55.520996,21.7249813 54.7836913,21.437872 C54.7464599,21.4233456 54.7071532,21.4226132 54.6695556,21.4103451 C55.2299804,18.5349179 56.5029296,9.517705 51.7592735,4.1756649 C48.9301719,0.9896302 44.5141563,-0.2725768 38.6459922,0.4246888 C38.5375938,0.3773255 38.4204063,0.3499818 38.2983359,0.3460755 C33.6811484,0.1771302 30.1577109,1.5531068 27.8447226,4.4027156 C23.4591025,9.80451 24.8539389,18.7994451 25.3770102,21.3992366 C25.3239706,21.4152278 25.2691,21.4174861 25.2167929,21.4378719 C24.4789999,21.7249813 23.9433554,22.4202938 23.7465781,23.346075 C23.5712851,24.170782 23.6689414,25.1234188 24.0214804,26.0277156 C24.3735312,26.9325008 24.9457968,27.700077 25.6328085,28.1893348 C26.1464804,28.5545692 26.7021444,28.7430457 27.2338827,28.7430457 C27.3667562,28.7430457 27.498226,28.7313269 27.6271932,28.7076453 C28.691036,32.0941809 30.4658162,34.9101599 33.3984334,36.6386145 L33.3984334,38.5737341 L28.99316,38.573612 C27.5836751,38.573612 26.3682821,39.3643224 25.7277181,40.5167883 C25.2758138,40.9925573 24.8902547,41.5342444 24.61816,42.1527136 L14.2863731,65.639534 L10.7519493,65.639534 C10.3378868,65.639534 10.0019493,65.9754715 10.0019493,66.389534 L10.0019493,66.511116 C9.721859,66.6689529 9.484066,66.899971 9.326168,67.1942215 L0.3388633,83.9256668 C0.3342857,83.9342117 0.336544,83.9442825 0.3323325,83.9528885 C0.2830771,84.0528031 0.2495078,84.1612625 0.2495078,84.280159 L0.2495078,88.0116043 C0.2495078,88.9764481 1.0346641,89.7616043 1.9995078,89.7616043 L77.9838828,89.7616043 C78.9438437,89.7616043 79.729,88.9803543 79.7338828,88.0184402 L79.7504912,84.2830886 C79.7504912,84.1637039 79.7176514,84.0547562 79.668457,83.9544144 Z M53.5250816,23.0222225 C53.5352745,23.0225277 53.5440025,23.0291805 53.5541954,23.0291805 C53.6147423,23.0291805 53.6752892,23.0233211 53.735836,23.0116024 C53.8875084,22.9819393 54.0213623,22.910162 54.1380615,22.8178768 C54.1713867,22.8244076 54.2079468,22.823431 54.2387695,22.8353329 C54.5922851,22.9730282 54.7338867,23.4095517 54.7866211,23.6575985 C54.8999024,24.1917782 54.824707,24.8573055 54.5805664,25.4832821 C54.3374023,26.1097469 53.9418907,26.6502743 53.4975548,26.9671688 C53.3370934,27.0805702 53.0639,27.2359047 52.7850304,27.2403603 C53.1155357,25.8955746 53.3547325,24.4807186 53.5250816,23.0222225 Z M26.5029259,26.9671688 C26.0576134,26.6502743 25.6625939,26.1097469 25.4189415,25.4832821 C25.1752892,24.8573055 25.1005821,24.1917782 25.2138634,23.6575985 C25.3037072,23.2357235 25.5029259,22.9359188 25.7607384,22.8353329 C25.8305626,22.8084774 25.9067345,22.7952938 25.9877892,22.7952938 C26.1341515,22.7952938 26.2963219,22.8394833 26.4636803,22.9219417 C26.6354332,24.415533 26.8793907,25.8638362 27.2189293,27.2391395 C26.9378624,27.2359657 26.6623497,27.0811195 26.5029259,26.9671688 Z M50.8422813,40.0741005 C54.3881836,40.0140419 54.7768554,40.6561318 55.6196289,42.069706 L67.1645508,61.42762 C67.9194336,62.6942216 67.8793946,64.3045731 67.0629883,65.5291825 C66.8720093,65.8162308 66.6425781,66.0678178 66.3875733,66.2840653 C65.9576417,66.6486283 65.4506837,66.9036942 64.9105225,67.0336991 C64.4359131,67.1478959 63.9371949,67.1684037 63.4428711,67.0711747 L63.2528687,67.0336991 L59.4522706,66.2840653 L50.3508264,64.4888993 C50.6898767,64.0678178 50.940487,63.5799027 51.0571252,63.0360184 L51.7202111,59.9373856 C51.832821,59.411995 51.81036,58.8827553 51.6863366,58.3760415 L57.0844727,59.4510575 C57.1333008,59.4608231 57.182129,59.4657059 57.2309571,59.4657059 C57.4741212,59.4657059 57.706543,59.3475418 57.8481446,59.1414871 C58.0180665,58.8953895 58.025879,58.5721473 57.8666993,58.3182411 L54.6743165,53.2098427 C54.4555665,52.8592568 53.9936486,52.7528114 53.6411096,52.9715614 C53.2895471,53.191288 53.1831018,53.653202 53.4028283,54.0047645 L53.5336877,54.2142372 L55.6752931,57.6414833 L51.3916589,56.7883339 L50.9926721,56.7088661 C50.9097253,56.6926918 50.8287317,56.6994667 50.7492639,56.7102089 C50.2790491,56.2452431 49.6889612,55.9182777 49.0268518,55.7762489 L46.3140832,55.1957435 L49.2065393,53.403202 C49.7778284,53.0477332 49.9526331,52.3231239 49.6049768,51.7528114 L47.4584924,48.2352333 L51.5786096,46.2508583 C51.8862268,46.1033974 52.1196252,45.8348427 52.218258,45.5155067 C52.3159143,45.2005653 52.2768518,44.8538856 52.1108361,44.5648231 L49.5338097,40.0741004 L50.8422813,40.0741004 L50.8422813,40.0741005 Z M40.9516563,78.9373856 C39.6102867,78.9373856 38.3315391,78.700203 37.1679649,78.2719193 C36.9113731,78.1774369 36.6627159,78.0703202 36.4178428,77.9577714 C36.1762046,77.8466264 35.9429282,77.724495 35.7138023,77.5966874 C33.0202598,76.0940629 31.2275352,73.4757157 31.2275352,70.4959794 C31.2275352,70.3436356 31.2338829,70.1864091 31.2470665,70.0194169 L50.6567345,70.0194169 C50.6694298,70.1864091 50.6762658,70.3436357 50.6762658,70.4959794 C50.6762658,73.476204 48.8829919,76.0948564 46.1885949,77.5973588 C45.9597131,77.7250443 45.7266808,77.8470536 45.4852868,77.9580155 C45.2454186,78.068245 45.0016442,78.1728593 44.7504846,78.2656937 C43.5827599,78.6975784 42.2990074,78.9373856 40.9516563,78.9373856 Z M44.7504845,79.8387527 L44.7504845,80.2244949 C44.7504845,80.4100418 44.5727501,80.6258621 44.398922,80.6512527 C44.3979454,80.6512527 44.3969689,80.6512527 44.3969689,80.6512527 C42.1108361,80.9881668 39.7944298,80.9910965 37.5087853,80.6522293 C37.3290978,80.6248855 37.1528283,80.4129715 37.1528283,80.2244949 L37.155819,79.8396682 C38.3435631,80.21949 39.6179162,80.4373855 40.9516564,80.4373855 C42.2865562,80.4373856 43.5619469,80.2191238 44.7504845,79.8387527 Z M45.1296349,66.2840652 L44.8380089,67.033699 L44.5460777,67.7840652 L44.2600059,68.5194168 L41.4580039,68.5194168 C41.6499595,68.3371658 41.8153037,68.1324539 41.9252891,67.8914871 L41.9741172,67.7840652 L42.3153037,67.033699 L42.656124,66.2840652 L43.2847861,64.9011917 C43.4511069,64.9646683 43.617977,65.0279007 43.7973593,65.0662918 L45.4646567,65.4229813 L45.1296349,66.2840652 Z M44.1118126,63.5994949 C44.0400353,63.584114 43.9748497,63.5559158 43.9066734,63.5333938 C43.6599083,63.4520339 43.4392051,63.3278274 43.2489586,63.1676101 C43.0579186,63.0067214 42.9001427,62.8143997 42.7810021,62.5971145 L44.1947594,62.8997268 L45.8715782,63.2586746 C45.9243126,63.2703934 45.977047,63.2752762 46.0297813,63.2752762 C46.135189,63.2752762 46.234066,63.2465286 46.3273887,63.2053909 C46.5401573,63.1115799 46.7099571,62.9268875 46.7622032,62.6825027 C46.7961998,62.5239334 46.7650108,62.3721389 46.7053184,62.2338943 C46.6123619,62.0188064 46.4327354,61.8447952 46.1860313,61.7918777 L44.8303794,61.5017166 L42.6120566,61.0268631 L42.7454184,60.4037552 L46.3188437,61.1678543 C46.3725546,61.1795731 46.425289,61.1844559 46.4770468,61.1844559 C46.8227499,61.1844559 47.1342734,60.943245 47.2094687,60.5916825 C47.2963828,60.1864091 47.0375937,59.7879716 46.6332968,59.7010575 L43.0593222,58.9368325 L43.192623,58.3138467 L46.7661093,59.0780107 C46.8198202,59.0897295 46.8725546,59.0946123 46.9243124,59.0946123 C47.2700155,59.0946123 47.581539,58.8533975 47.6567343,58.501835 C47.7436484,58.0965616 47.4848593,57.6981241 47.0805624,57.61121 L46.6418417,57.517399 L43.9901693,56.9503824 C44.3929403,56.6456949 44.9027059,56.4964029 45.4295614,56.5593912 C45.4910848,56.5667154 45.55212,56.5666544 45.6137655,56.57996 L46.1882284,56.7028848 L48.7123983,57.2430459 C48.9431722,57.2924844 49.1554525,57.3858682 49.3498495,57.5066567 C49.5797079,57.649479 49.7792318,57.8366738 49.9370687,58.0650673 C49.9490926,58.0824623 49.9645345,58.0963173 49.9760702,58.1141396 C50.2670858,58.5633584 50.3657186,59.099495 50.253414,59.6229325 L49.5903281,62.7215653 C49.4780234,63.2450028 49.1694297,63.6942216 48.7192343,63.9852372 C48.6380575,64.0379716 48.5514487,64.0770341 48.465267,64.1170121 C48.1658285,64.2559892 47.8421591,64.3175126 47.5126303,64.2970658 C47.4736288,64.2946244 47.4345663,64.2883378 47.3954428,64.2836381 C47.3340414,64.2761918 47.2727011,64.2757035 47.2114218,64.262581 L46.7589682,64.1657792 L46.015621,64.0067826 L44.1118126,63.5994949 Z M46.9531212,65.7353592 C47.1807823,65.7803421 47.4097862,65.8084793 47.6372032,65.8084793 C47.963314,65.8084793 48.2855797,65.761055 48.5971641,65.6710892 L51.7047691,66.2840653 L46.7396812,66.2840653 L46.9531212,65.7353592 Z M47.954586,40.3358192 L50.6498985,45.0330848 L46.5229454,47.0203895 C46.2104454,47.1707801 45.9750938,47.4442176 45.8784141,47.7703895 C45.782711,48.0936317 45.829586,48.4451942 46.0063438,48.7352333 L48.1694297,52.2811317 L40.7105064,56.903202 L40.3149376,57.1483192 L40.4358482,56.882267 L47.954586,40.3358192 Z M45.1020471,40.1660194 L40.2390709,42.7944984 L40.1752892,42.8289833 C40.1117516,42.8633461 40.0572472,42.906559 39.9997521,42.9469032 C39.9423791,42.9067421 39.8880578,42.8636512 39.8247033,42.8294716 L39.759945,42.7944374 L34.8984338,40.1661415 L34.8984338,37.4437293 C35.0406457,37.4836464 35.1854821,37.5120277 35.3284875,37.5485268 C36.6923181,38.0526772 38.247738,38.3737221 40.0385705,38.4642372 C41.8579064,38.3717689 43.4332849,38.0387001 44.8101159,37.5148353 C44.9070397,37.4893226 45.0054894,37.470829 45.1020471,37.4437293 L45.1020471,40.1660194 L45.1020471,40.1660194 Z M45.7750206,41.5070229 L43.3589439,46.8243447 L43.1284141,46.9832802 C43.0434532,47.041874 42.9174766,47.0623818 42.8022422,47.0399208 C42.7153281,47.0233192 42.6420859,46.9842567 42.6108359,46.9373817 L40.836727,44.2685585 L40.8061484,44.222538 C40.8090781,44.2137489 40.8286093,44.1810341 40.8881797,44.1488075 L45.7750206,41.5070229 Z M39.1118126,44.1492958 C39.1713829,44.1810341 39.1909142,44.2137489 39.1879845,44.2244911 L39.1589318,44.2683143 L37.3891564,46.9364051 C37.3579064,46.9832801 37.2846642,47.0233192 37.1972619,47.0399207 C37.0820275,47.0614051 36.9555627,47.0418738 36.8715783,46.9832801 L36.4976769,46.7231483 L34.1485558,41.5933876 L34.070736,41.4234657 L34.1485558,41.46558 L39.1118126,44.1492958 Z M37.4814415,48.5125771 C37.8111534,48.4494057 38.1005211,48.3025551 38.3361168,48.0985756 L38.5530968,49.479557 C38.5897179,49.7124061 38.7520104,49.8801918 38.94067,49.8801918 L41.0594444,49.8801918 C41.2481041,49.8801918 41.4103965,49.7124062 41.4469566,49.479557 L41.6639366,48.0986976 C41.899044,48.3023109 42.1879234,48.4487953 42.5180626,48.512577 C42.5415001,48.5171546 42.5652428,48.5156898 42.5887413,48.5193519 L41.4668541,50.988346 L41.4099693,50.4787024 C41.4009971,50.3972815 41.2269859,50.3330115 41.015316,50.3330115 L38.9849815,50.3330115 C38.7733116,50.3330115 38.5993003,50.3972815 38.5903282,50.4787024 L38.5172081,51.1333045 L37.3240318,48.5277137 C37.3765831,48.5218544 37.4291954,48.5227699 37.4814415,48.5125771 Z M28.9970665,27.7974281 C28.8911095,27.4356117 28.7873497,27.0704994 28.6952477,26.6903133 C28.4517174,25.6854305 28.2518883,24.6213436 28.0955773,23.4943904 C28.0340539,23.0508479 27.984005,22.5898494 27.9345055,22.1283626 C27.80859,20.9541072 27.7153283,19.7290706 27.657528,18.4455013 C27.832821,17.3676815 28.0872155,16.4716243 28.3891564,15.7347469 C28.8500939,15.6566219 29.8461877,15.4412899 31.0185509,14.9007625 C31.2031212,15.1571102 31.5180626,15.3123836 31.8369103,15.2943172 C32.0029259,15.2860164 34.2128869,15.1595516 36.5488244,14.2430477 C36.5371056,14.3485165 36.5434533,14.4578915 36.5688439,14.5658016 C36.6689416,14.9857235 37.0400353,15.2855282 37.4716759,15.2952938 C37.6762657,15.3079891 41.6430626,15.3504696 44.0922814,12.5482235 C45.0375939,14.8123837 47.1606408,18.5218563 51.4897423,20.8509579 L52.1115074,21.7077694 C52.0974693,21.8502255 52.0808067,21.9885311 52.065731,22.1294003 C52.0164756,22.5898495 51.966793,23.0499936 51.9056358,23.4926816 C51.7495689,24.6225034 51.5499839,25.6893369 51.3067588,26.696539 C51.215023,27.0761758 51.1116904,27.4406777 51.0062827,27.8020058 C49.8078574,31.9093056 47.690914,34.8098793 44.1284751,36.1444741 C42.9297446,36.5935708 41.5869712,36.8869668 40.0385703,36.9661904 C38.5024985,36.8881875 37.1676597,36.602604 35.9739951,36.1657754 C32.3514977,34.8401527 30.2071495,31.9284096 28.9970665,27.7974281 Z M38.9604454,55.7030067 L31.7919884,51.3153114 L33.6643639,48.2843666 L33.7924767,48.0770302 C33.879879,47.9359169 33.9351769,47.7796669 33.9569664,47.6192665 C33.9787559,47.4588661 33.9670372,47.2943153 33.9204063,47.1366005 C33.8603477,46.9331093 33.7310752,46.7661781 33.5759239,46.6232338 C33.487606,46.5418129 33.4003258,46.4579506 33.2890587,46.4051552 L29.4809532,44.5960732 L31.9379845,40.3685341 L38.9604454,55.7030067 Z M26.7431602,65.8809891 L26.7431602,42.3236122 C26.7431602,41.9876747 26.8222007,41.6717567 26.9547081,41.3851967 C27.3502769,41.0096474 27.8181114,40.7098427 28.3417931,40.5062294 C28.8413048,40.3118935 29.3627892,40.2152138 29.8828087,40.2152138 C30.0122032,40.2152138 30.1399498,40.2435341 30.2688561,40.255497 L28.0014611,44.1561318 C27.8378869,44.4373818 27.7988244,44.7752724 27.8940392,45.0833779 C27.9907189,45.3953896 28.2187462,45.6571084 28.5209923,45.8006631 L32.3203087,47.6063272 L30.3388634,50.8133585 C30.1738243,51.0809366 30.1230431,51.3934366 30.1948204,51.6951944 C30.2675743,51.9989053 30.4570274,52.2576944 30.7280235,52.4227335 L30.9617881,52.5658609 L38.6199912,57.2537271 L38.5991172,57.2996866 C38.3793906,57.783085 38.5043906,58.3475382 38.9106406,58.7039835 C39.1557578,58.9188273 39.4594687,59.0291826 39.7641562,59.0291826 C39.9975546,59.0291826 40.2319296,58.9647257 40.4418906,58.8348428 L41.7159995,58.045231 L41.104,60.9051591 C41.0773276,61.029915 41.0757407,61.1531449 41.0628623,61.2772904 C41.0404014,61.4928666 41.0369834,61.7049637 41.0538901,61.9152299 C41.119686,62.7327348 41.4559287,63.4967729 42.0127524,64.0744096 L41.0080527,66.2840654 L26.7916832,66.2840654 C26.7813683,66.2138139 26.7716026,66.1440508 26.7431602,66.0815508 L26.7431602,65.8809891 L26.7431602,65.8809891 Z M26.0698204,72.1190262 L26.0698204,80.224495 C26.0698204,80.3621903 25.9575157,80.474495 25.8198204,80.474495 L19.7260704,80.474495 C19.5883751,80.474495 19.4760704,80.3621903 19.4760704,80.224495 L19.4794884,72.1014481 L20.3550988,69.7469559 L25.0425378,69.7469559 L25.1905481,69.7469559 L26.0698204,72.1190262 Z M25.3129845,68.2469559 L20.2329064,68.2469559 L20.2329064,67.139534 L25.3129845,67.139534 L25.3129845,68.2469559 Z M25.2431602,44.4572182 L25.2431602,65.5660477 L25.2108116,65.639534 L19.4829063,65.639534 C19.1062584,65.639534 18.8074913,65.9221878 18.7542076,66.2840653 L18.0607262,66.2840653 C18.0074425,65.9221879 17.7086754,65.639534 17.3320275,65.639534 L15.924923,65.639534 L25.2431602,44.4572182 Z M18.8776207,69.4159622 L18.4075279,70.6796951 L17.9373741,69.4159012 C18.0215416,69.2946854 18.0820274,69.1556473 18.0820274,68.9969559 L18.0820274,67.7840653 L18.7329063,67.7840653 L18.7329063,68.9969559 C18.7329063,69.1557083 18.7933922,69.2946854 18.8776207,69.4159622 Z M11.5019493,67.139534 L16.5820274,67.139534 L16.5820274,68.2469559 L11.5019493,68.2469559 L11.5019493,67.139534 Z M10.7485313,72.1014481 L11.6241417,69.7469559 L16.4595909,69.7469559 L17.3388634,72.1190262 L17.3388634,80.224495 C17.3388634,80.3621903 17.2265587,80.474495 17.0888634,80.474495 L10.9951134,80.474495 C10.8574181,80.474495 10.7451134,80.3621903 10.7451134,80.224495 L10.7485313,72.1014481 Z M10.0178185,69.0754471 C10.0317345,69.2026444 10.0772057,69.3159256 10.1466637,69.4159622 L9.3427697,71.577034 C9.2778283,71.7508621 9.2451134,71.9334793 9.2451134,72.1190262 L9.2451134,80.224495 C9.2451134,81.1893388 10.0302697,81.974495 10.9951134,81.974495 L17.0888634,81.974495 C17.6174279,81.974495 18.0862999,81.7339554 18.4074669,81.3622513 C18.7286339,81.7339554 19.197506,81.974495 19.7260704,81.974495 L25.8198204,81.974495 C26.7846642,81.974495 27.5698204,81.1893387 27.5698204,80.224495 L27.5698204,72.1190262 C27.5698204,71.9334793 27.5371056,71.7508621 27.4726524,71.5780106 L26.7431602,69.616951 L26.7431602,69.3049393 C26.786129,69.2104569 26.8129844,69.1074906 26.8129844,68.9969559 L26.8129844,67.7840651 L39.9263877,67.7840651 C39.6025962,67.9980546 39.298397,68.2364579 39.0371055,68.5194169 L30.5810508,68.5194169 C30.2104453,68.5194169 29.8950156,68.7899247 29.8393516,69.1571122 C29.7631797,69.6610185 29.7275352,70.0858231 29.7275352,70.4959794 C29.7275352,74.2808305 32.1293296,77.5767899 35.6528282,79.255684 L35.6528282,80.224495 C35.6528282,81.1580888 36.3696251,81.9969559 37.2871055,82.1356278 C38.5034141,82.3153153 39.7270469,82.4051591 40.9516563,82.4051591 C42.1762657,82.4051591 43.3998985,82.3153153 44.6157188,82.1356278 C45.532711,82.0008622 46.2504844,81.161995 46.2504844,80.224495 L46.2504844,79.255806 C49.7742881,77.576973 52.1762657,74.2809525 52.1762657,70.4959793 C52.1762657,70.0867996 52.1401329,69.6610184 52.0629844,69.1561355 C52.0073203,68.7899246 51.6918906,68.5194167 51.3217735,68.5194167 L45.8700523,68.5194167 L46.1561241,67.7840651 L59.3097534,67.7840651 L63.1518555,68.5418776 C64.4498291,68.7972487 65.7803345,68.4971999 66.8640747,67.7840651 L69.1518555,67.7840651 C69.2368164,67.7840651 69.3139649,67.8299635 69.3530274,67.9032057 L77.746582,83.530159 L2.2539024,83.530159 L10.0178185,69.0754471 Z M78.2338867,88.0116043 C78.2329101,88.1492996 78.1206054,88.2616043 77.9838867,88.2616043 L1.9995117,88.2616043 C1.8618164,88.2616043 1.7495117,88.1492996 1.7495117,88.0116043 L1.7495117,85.030159 L78.2471313,85.030159 L78.2338867,88.0116043 Z M38.2983322,27.4359169 L38.2983322,25.3333797 C38.2983322,24.9193172 38.6342697,24.5833797 39.0483322,24.5833797 C39.4623947,24.5833797 39.7983322,24.9193172 39.7983322,25.3333797 L39.7983322,27.2655067 L40.9516525,27.2655067 C41.365715,27.2655067 41.7016525,27.6014442 41.7016525,28.0155067 C41.7016525,28.4295692 41.365715,28.7655067 40.9516525,28.7655067 L39.6284103,28.7655067 C38.8950119,28.7655067 38.2983322,28.1688271 38.2983322,27.4359169 Z M33.2538986,24.07337 C32.447258,24.07337 31.7933883,23.4195004 31.7933883,22.6128597 C31.7933883,21.806219 32.4472579,21.1522884 33.2538986,21.1522884 C34.0605393,21.1522884 34.7144699,21.8062191 34.7144699,22.6128597 C34.7144699,23.4195003 34.0605392,24.07337 33.2538986,24.07337 Z M45.2856369,22.6128597 C45.2856369,21.8062191 45.9395676,21.1522884 46.7462082,21.1522884 C47.5527878,21.1522884 48.2067185,21.8062191 48.2067185,22.6128597 C48.2067185,23.4195003 47.5527878,24.07337 46.7462082,24.07337 C45.9395676,24.07337 45.2856369,23.4195004 45.2856369,22.6128597 Z M36.3290939,32.0555458 C36.3290939,31.6414833 36.6650314,31.3055458 37.0790939,31.3055458 C37.4135666,31.3055458 37.6967697,31.5242958 37.7934494,31.8270302 C38.044426,31.9754677 38.8334885,32.1986122 40.0004807,32.1986122 C41.1674729,32.1986122 41.9565354,31.9754677 42.2065354,31.8270302 C42.3032151,31.5242958 42.5864182,31.3055458 42.9213792,31.3055458 C43.3354417,31.3055458 43.6713792,31.6414833 43.6713792,32.0555458 C43.6713792,33.2669716 41.7748948,33.6986122 40.0004808,33.6986122 C38.2255783,33.6986122 36.3290939,33.2669716 36.3290939,32.0555458 Z M55.1733322,81.9744949 L59.1020431,81.9744949 C60.0668869,81.9744949 60.8520431,81.1893386 60.8520431,80.2244949 L60.8520431,74.7254715 C60.8520431,74.3532791 60.7332687,74.009407 60.5343551,73.7254715 C60.7332687,73.441536 60.8520431,73.0976639 60.8520431,72.7254715 L60.8520431,72.2293777 C60.8520431,71.2645339 60.0668868,70.4793777 59.1020431,70.4793777 L55.1733322,70.4793777 C54.2084884,70.4793777 53.4233322,71.264534 53.4233322,72.2293777 L53.4233322,72.7254715 C53.4233322,73.0976639 53.5421066,73.441536 53.7410202,73.7254715 C53.5421066,74.009407 53.4233322,74.3532791 53.4233322,74.7254715 L53.4233322,80.2244949 C53.4233322,81.1893387 54.2084885,81.9744949 55.1733322,81.9744949 Z M54.9233322,72.7254715 L54.9233322,72.2293777 C54.9233322,72.0916824 55.0356369,71.9793777 55.1733322,71.9793777 L59.1020431,71.9793777 C59.2397384,71.9793777 59.3520431,72.0916824 59.3520431,72.2293777 L59.3520431,72.7254715 C59.3520431,72.8631668 59.2397384,72.9754715 59.1020431,72.9754715 L55.1733322,72.9754715 C55.0356369,72.9754715 54.9233322,72.8631668 54.9233322,72.7254715 Z M59.3520432,74.7254715 L59.3520432,80.2244949 C59.3520432,80.3621902 59.2397385,80.4744949 59.1020432,80.4744949 L55.1733323,80.4744949 C55.035637,80.4744949 54.9233323,80.3621902 54.9233323,80.2244949 L54.9233323,74.7254715 C54.9233323,74.5877762 55.035637,74.4754715 55.1733323,74.4754715 L59.1020432,74.4754715 C59.2397385,74.4754715 59.3520432,74.5877762 59.3520432,74.7254715 Z M63.1733322,81.9744949 L67.1020431,81.9744949 C68.0668869,81.9744949 68.8520431,81.1893386 68.8520431,80.2244949 L68.8520431,74.7254715 C68.8520431,74.3532791 68.7332687,74.009407 68.5343551,73.7254715 C68.7332687,73.441536 68.8520431,73.0976639 68.8520431,72.7254715 L68.8520431,72.2293777 C68.8520431,71.2645339 68.0668868,70.4793777 67.1020431,70.4793777 L63.1733322,70.4793777 C62.2084884,70.4793777 61.4233322,71.264534 61.4233322,72.2293777 L61.4233322,72.7254715 C61.4233322,73.0976639 61.5421066,73.441536 61.7410202,73.7254715 C61.5421066,74.009407 61.4233322,74.3532791 61.4233322,74.7254715 L61.4233322,80.2244949 C61.4233322,81.1893387 62.2084885,81.9744949 63.1733322,81.9744949 Z M62.9233322,72.7254715 L62.9233322,72.2293777 C62.9233322,72.0916824 63.0356369,71.9793777 63.1733322,71.9793777 L67.1020431,71.9793777 C67.2397384,71.9793777 67.3520431,72.0916824 67.3520431,72.2293777 L67.3520431,72.7254715 C67.3520431,72.8631668 67.2397384,72.9754715 67.1020431,72.9754715 L63.1733322,72.9754715 C63.0356369,72.9754715 62.9233322,72.8631668 62.9233322,72.7254715 Z M67.3520432,74.7254715 L67.3520432,80.2244949 C67.3520432,80.3621902 67.2397385,80.4744949 67.1020432,80.4744949 L63.1733323,80.4744949 C63.035637,80.4744949 62.9233323,80.3621902 62.9233323,80.2244949 L62.9233323,74.7254715 C62.9233323,74.5877762 63.035637,74.4754715 63.1733323,74.4754715 L67.1020432,74.4754715 C67.2397385,74.4754715 67.3520432,74.5877762 67.3520432,74.7254715 Z M44.220211,73.2284012 L44.220211,75.7284012 L42.2016563,75.7284012 L42.2016563,77.7469559 L39.7016563,77.7469559 L39.7016563,75.7497635 L39.7016563,75.7284012 L37.6826133,75.7284012 L37.6826133,73.2284012 L39.7016563,73.2284012 L39.7016563,71.2098465 L42.2016563,71.2098465 L42.2016563,73.2284012 L44.220211,73.2284012 L44.220211,73.2284012 Z M16.8613243,74.0135574 L16.8613243,76.0135574 L15.0419884,76.0135574 L15.0419884,77.8319168 L13.0419884,77.8319168 L13.0419884,76.0135574 L11.2231407,76.0135574 L11.2231407,74.0135574 L13.0419884,74.0135574 L13.0419884,72.1942215 L13.048153,72.1942215 L15.0419884,72.1942215 L15.0419884,74.0135574 L16.8613243,74.0135574 Z M25.5922813,74.0135574 L25.5922813,76.0135574 L23.7729454,76.0135574 L23.7729454,77.8319168 L21.7729454,77.8319168 L21.7729454,76.0135574 L19.9540977,76.0135574 L19.9540977,74.0135574 L21.7729454,74.0135574 L21.7729454,72.1942215 L23.7729454,72.1942215 L23.7729454,74.0135574 L25.5922813,74.0135574 Z" id="Shape"></path>
            </g>
        </g>
    </g>
</svg>