<svg xmlns="http://www.w3.org/2000/svg" viewBox="0 0 528 108"><g id="Page-1" stroke="none" stroke-width="1" fill="none" fill-rule="evenodd"><g id="Desktop-HD" transform="translate(-260 -199)"><g id="header" transform="translate(256.4 194)"><g id="hotel" transform="translate(92 22)" fill="#000" fill-rule="nonzero"><path id="Rectangle" d="M23.8 88.2h44.6v2.3H23.8zM14.3 83.1h3.5v2.3h-3.5zM74.3 83.2h3.5v2.3h-3.5z"/><g id="Group" transform="translate(30.5 23.2)"><path d="M7.1 7h-7V.2h7v7zM2.5 4.8h2.3V2.4H2.5v2.3zM19 7h-7V.2h7v7zm-4.6-2.3h2.3V2.4h-2.3v2.3zM30.4 7h-7V.2h7v7zm-4.6-2.3h2.3V2.4h-2.3v2.3zM7.4 27h-7v-7h7v7zm-4.7-2.3H5v-2.3H2.7v2.3zM19 27h-7v-7h7v7zm-4.6-2.3h2.3v-2.3h-2.3v2.3zM30.7 27h-7v-7h7v7zm-4.6-2.3h2.3v-2.3H26v2.3zM7.4 37h-7v-7h7v7zm-4.7-2.3H5v-2.3H2.7v2.3zM19 37h-7v-7h7v7zm-4.6-2.3h2.3v-2.3h-2.3v2.3zM30.7 37h-7v-7h7v7zm-4.6-2.3h2.3v-2.3H26v2.3zM7.1 17h-7v-7h7v7zm-4.6-2.3h2.3v-2.3H2.5v2.3zM19 17h-7v-7h7v7zm-4.6-2.3h2.3v-2.3h-2.3v2.3zM30.4 17h-7v-7h7v7zm-4.6-2.3h2.3v-2.3h-2.3v2.3z" id="Shape"/></g><g id="Group" transform="translate(69.3 49)"><path id="Rectangle" d="M5.2.1h2.7v2.7H5.2zM10.2.1h2.7v2.7h-2.7zM.2.1h2.7v2.7H.2zM5.2 5.1h2.7v2.7H5.2zM10.2 5.1h2.7v2.7h-2.7zM.2 5.1h2.7v2.7H.2zM5.2 10.1h2.7v2.7H5.2zM10.2 10.1h2.7v2.7h-2.7zM.2 10.1h2.7v2.7H.2z"/></g><g id="Group" transform="translate(9.2 49)"><path id="Rectangle" d="M5.1.1h2.7v2.7H5.1zM10.1.1h2.7v2.7h-2.7zM.1.1h2.7v2.7H.1zM5.1 5.1h2.7v2.7H5.1zM10.1 5.1h2.7v2.7h-2.7zM.1 5.1h2.7v2.7H.1zM5.1 10.1h2.7v2.7H5.1zM10.1 10.1h2.7v2.7h-2.7zM.1 10.1h2.7v2.7H.1z"/></g><g id="Group" transform="translate(0 17.2)"><path d="M62.3 62.1h-3v-5.7H57V62h-1.5v-9.8h3.9v-6.2H32.2v6.2H36v9.8h-1.5v-4.8h-2.3v4.8h-1.9v2.4H36v4.3h2.4v-4.3h14.8v4.3h2.3v-4.3h6.8V62zm-14 0h-5v-5.8h5V62zm4.9 0h-2.5V54h-9.8v8.2h-2.5v-9.8h14.8v9.8zM34.5 50v-1.5H57V50H34.5z" id="Shape"/><path d="M28.2 60.5a4.7 4.7 0 003.7-4.6c0-1.2-.4-3.4-1-5.2-1-2.7-2.2-4-3.6-4s-2.6 1.3-3.6 4c-.6 1.8-1 4-1 5.2 0 .9.2 1.7.6 2.4h-1.5V46.6H10.2v11.7H7V29.1h14.2v-2.3H4.6v31.5H.2v2.4h25.6v5.2h-5.2v2.4h10.2v-2.4h-2.6v-5.4zm-8.7-2.2h-2.3v-6.5h-2.3v6.5h-2.3V49h6.9v9.3zM25 56c0-.7.3-2.5.8-4 .6-2 1.2-2.7 1.5-2.9.2.2.8 1 1.5 2.8.5 1.6.8 3.4.8 4.1a2.3 2.3 0 01-4.6 0z" id="Shape"/><path d="M87 58.3V26.8H67.1V0H24.3v43.2h2.3V2.5h38l.2 40.8h2.3V29h17.4v29.2H82V46.6H70.5v11.7H69c.5-.7.7-1.5.7-2.4 0-1.2-.4-3.4-1-5.2-1-2.7-2.2-4-3.7-4-1.4 0-2.6 1.3-3.5 4-.7 1.8-1.1 4-1.1 5.2 0 2.2 1.5 4 3.5 4.5V66h-2.5v2.4h10v-2.4h-5.2v-5.2H91v-2.4h-4zm-22 0c-1.3 0-2.4-1.1-2.4-2.4 0-.7.3-2.5.9-4 .6-2 1.2-2.7 1.4-2.9.3.2.9 1 1.5 2.8.6 1.6.9 3.4.9 4.1 0 1.3-1 2.3-2.4 2.3zM75 51.7v6.5H73V49h6.8v9.3h-2.3v-6.5h-2.3z" id="Shape"/></g><g id="Group" transform="translate(11.7)"><path d="M38.7 15.4l-.6-.1-3.5-1.9-3.6 1.9c-.4.2-1 .2-1.4-.1-.4-.3-.6-.8-.5-1.3l.7-4-2.9-2.7c-.3-.4-.4-.9-.3-1.4.2-.4.6-.8 1-.9l4-.5L33.4.8a1.3 1.3 0 011.2-.7c.5 0 1 .2 1.1.7l1.8 3.6 4 .5c.4.1.8.5 1 1 .2.4 0 1-.3 1.3L39.3 10l.7 3.9a1.3 1.3 0 01-1.3 1.5zM34.6 11l.6.1 2.1 1.1-.4-2.4c0-.4 0-.8.4-1.1L39 7l-2.4-.4c-.4 0-.8-.3-1-.7l-1-2.2-1.1 2.2c-.2.4-.6.6-1 .7L30 7l1.7 1.7c.3.3.5.7.4 1.1l-.4 2.4 2.1-1c.2-.2.4-.2.7-.2zM47.1 13.6a1.4 1.4 0 01-1.4-1.6l.4-2.2-1.6-1.5c-.4-.4-.5-1-.3-1.4.1-.6.6-1 1.1-1l2.2-.3 1-2c.2-.5.7-.8 1.2-.8s1 .3 1.3.8l1 2 2 .3c.6 0 1 .4 1.2 1 .2.5 0 1-.3 1.4l-1.6 1.5.4 2.2c0 .5-.1 1-.6 1.4-.4.3-1 .3-1.5 0l-1.9-1-2 1c-.1.2-.4.2-.6.2zm2.6-3.6c.2 0 .5 0 .7.2l.7.3-.2-.7c0-.5.1-1 .4-1.3l.6-.6H51c-.4-.1-.8-.4-1-.8l-.4-.7-.3.7c-.3.4-.7.7-1.1.7l-.8.1.6.6c.3.3.5.8.4 1.3l-.2.7.7-.3.7-.2zM60.5 13.6A1.4 1.4 0 0159 12l.3-2.2L58 8.3c-.4-.4-.6-1-.4-1.4.2-.6.6-1 1.2-1l2.1-.3 1-2c.2-.5.7-.8 1.2-.8.6 0 1 .3 1.3.8l1 2 2.1.3c.6 0 1 .4 1.2 1 .1.5 0 1-.4 1.4l-1.5 1.5.3 2.2c.1.5-.1 1-.5 1.4-.5.3-1 .3-1.5 0l-2-1-1.9 1c-.2.2-.4.2-.6.2zm.3-5.7l.6.6c.3.3.5.8.4 1.3l-.1.7.7-.3c.4-.3.9-.3 1.3 0l.7.3-.1-.7c-.1-.5 0-1 .4-1.3l.5-.6h-.7c-.5-.1-.9-.4-1.1-.8l-.4-.7-.3.7c-.2.4-.6.7-1 .7l-.9.1zM3.1 13.6A1.4 1.4 0 011.8 12L2 9.8.6 8.3C.2 8 0 7.3.2 7c.2-.6.6-1 1.1-1l2.2-.3 1-2c.2-.5.7-.8 1.2-.8.6 0 1 .3 1.3.8l1 2 2.1.3c.6 0 1 .4 1.2 1 .1.5 0 1-.4 1.4L9.3 9.8l.4 2.2c.1.5-.1 1-.6 1.4-.4.3-1 .3-1.4 0l-2-1-1.9 1c-.2.2-.4.2-.7.2zM3.5 8l.6.6c.3.3.5.8.4 1.3l-.1.7.7-.3c.4-.3.9-.3 1.3 0l.7.3-.1-.7c-.1-.5 0-1 .4-1.3l.5-.6h-.8c-.4-.1-.8-.4-1-.8l-.4-.7-.3.7c-.2.4-.6.7-1 .7l-.9.1zM16.5 13.6A1.4 1.4 0 0115 12l.4-2.2-1.6-1.5c-.4-.4-.5-1-.4-1.4.2-.6.7-1 1.2-1l2.1-.3 1-2c.2-.5.7-.8 1.3-.8.5 0 1 .3 1.2.8l1 2 2.2.3c.5 0 1 .4 1.1 1 .2.5 0 1-.4 1.4l-1.5 1.5.4 2.2c0 .5-.2 1-.6 1.4-.5.3-1 .3-1.5 0l-2-1-1.8 1c-.3.2-.5.2-.7.2zM19 10c.2 0 .4 0 .6.2l.7.3-.1-.7c0-.5 0-1 .4-1.3l.6-.6h-.8c-.5-.1-.9-.4-1-.8l-.4-.7-.4.7c-.2.4-.6.7-1 .7l-.8.1.5.6c.4.3.5.8.5 1.3l-.2.7.7-.3.7-.2z" id="Shape"/></g></g><g id="hospital" transform="translate(351.5 21)" fill="#000"><g id="building" transform="translate(0 18)" fill-rule="nonzero"><path id="Rectangle" d="M23.8 71.2h44.6v2.3H23.8zM14.3 66.1h3.5v2.3h-3.5zM74.3 66.2h3.5v2.3h-3.5z"/><g id="Group" transform="translate(30.5 6.2)"><path d="M7.1 7h-7V.2h7v7zM2.5 4.8h2.3V2.4H2.5v2.3zM19 7h-7V.2h7v7zm-4.6-2.3h2.3V2.4h-2.3v2.3zM30.4 7h-7V.2h7v7zm-4.6-2.3h2.3V2.4h-2.3v2.3zM7.4 27h-7v-7h7v7zm-4.7-2.3H5v-2.3H2.7v2.3zM19 27h-7v-7h7v7zm-4.6-2.3h2.3v-2.3h-2.3v2.3zM30.7 27h-7v-7h7v7zm-4.6-2.3h2.3v-2.3H26v2.3zM7.4 37h-7v-7h7v7zm-4.7-2.3H5v-2.3H2.7v2.3zM19 37h-7v-7h7v7zm-4.6-2.3h2.3v-2.3h-2.3v2.3zM30.7 37h-7v-7h7v7zm-4.6-2.3h2.3v-2.3H26v2.3zM7.1 17h-7v-7h7v7zm-4.6-2.3h2.3v-2.3H2.5v2.3zM19 17h-7v-7h7v7zm-4.6-2.3h2.3v-2.3h-2.3v2.3zM30.4 17h-7v-7h7v7zm-4.6-2.3h2.3v-2.3h-2.3v2.3z" id="Shape"/></g><g id="Group" transform="translate(69.3 32)"><path id="Rectangle" d="M5.2.1h2.7v2.7H5.2zM10.2.1h2.7v2.7h-2.7zM.2.1h2.7v2.7H.2zM5.2 5.1h2.7v2.7H5.2zM10.2 5.1h2.7v2.7h-2.7zM.2 5.1h2.7v2.7H.2zM5.2 10.1h2.7v2.7H5.2zM10.2 10.1h2.7v2.7h-2.7zM.2 10.1h2.7v2.7H.2z"/></g><g id="Group" transform="translate(9.2 32)"><path id="Rectangle" d="M5.1.1h2.7v2.7H5.1zM10.1.1h2.7v2.7h-2.7zM.1.1h2.7v2.7H.1zM5.1 5.1h2.7v2.7H5.1zM10.1 5.1h2.7v2.7h-2.7zM.1 5.1h2.7v2.7H.1zM5.1 10.1h2.7v2.7H5.1zM10.1 10.1h2.7v2.7h-2.7zM.1 10.1h2.7v2.7H.1z"/></g><g id="Group" transform="translate(0 .2)"><path d="M62.3 62.1h-3v-5.7H57V62h-1.5v-9.8h3.9v-6.2H32.2v6.2H36v9.8h-1.5v-4.8h-2.3v4.8h-1.9v2.4H36v4.3h2.4v-4.3h14.8v4.3h2.3v-4.3h6.8V62zm-14 0h-5v-5.8h5V62zm4.9 0h-2.5V54h-9.8v8.2h-2.5v-9.8h14.8v9.8zM34.5 50v-1.5H57V50H34.5z" id="Shape"/><path d="M28.2 60.5a4.7 4.7 0 003.7-4.6c0-1.2-.4-3.4-1-5.2-1-2.7-2.2-4-3.6-4s-2.6 1.3-3.6 4c-.6 1.8-1 4-1 5.2 0 .9.2 1.7.6 2.4h-1.5V46.6H10.2v11.7H7V29.1h14.2v-2.3H4.6v31.5H.2v2.4h25.6v5.2h-5.2v2.4h10.2v-2.4h-2.6v-5.4zm-8.7-2.2h-2.3v-6.5h-2.3v6.5h-2.3V49h6.9v9.3zM25 56c0-.7.3-2.5.8-4 .6-2 1.2-2.7 1.5-2.9.2.2.8 1 1.5 2.8.5 1.6.8 3.4.8 4.1a2.3 2.3 0 01-4.6 0z" id="Shape"/><path d="M87 58.3V26.8H67.1V0H24.3v43.2h2.3V2.5h38l.2 40.8h2.3V29h17.4v29.2H82V46.6H70.5v11.7H69c.5-.7.7-1.5.7-2.4 0-1.2-.4-3.4-1-5.2-1-2.7-2.2-4-3.7-4-1.4 0-2.6 1.3-3.5 4-.7 1.8-1.1 4-1.1 5.2 0 2.2 1.5 4 3.5 4.5V66h-2.5v2.4h10v-2.4h-5.2v-5.2H91v-2.4h-4zm-22 0c-1.3 0-2.4-1.1-2.4-2.4 0-.7.3-2.5.9-4 .6-2 1.2-2.7 1.4-2.9.3.2.9 1 1.5 2.8.6 1.6.9 3.4.9 4.1 0 1.3-1 2.3-2.4 2.3zM75 51.7v6.5H73V49h6.8v9.3h-2.3v-6.5h-2.3z" id="Shape"/></g></g><path d="M49 0v4.7h4.7v7H49v4.7h-7v-4.7h-4.7v-7H42V0h7zm-2.4 2.3h-2.2v4.8h-4.7v2.2h4.7v4.8h2.2V9.3h4.7V7.1h-4.7V2.3z" id="Combined-Shape"/><path id="Path" fill-rule="nonzero" d="M62.4 12.1V9.5H65V6.9h-2.6V4.3h-2.6v2.6h-2.6v2.6h2.6v2.6z"/><path id="Path-Copy-3" fill-rule="nonzero" d="M18.9 12.1V9.5h2.6V6.9h-2.6V4.3h-2.6v2.6h-2.6v2.6h2.6v2.6z"/><path id="Path-Copy-2" fill-rule="nonzero" d="M73.8 12.1V9.5h2.6V6.9h-2.6V4.3h-2.6v2.6h-2.6v2.6h2.6v2.6z"/><path id="Path-Copy" fill-rule="nonzero" d="M31.2 12.1V9.5h2.6V6.9h-2.6V4.3h-2.6v2.6H26v2.6h2.6v2.6z"/></g><g id="delivery" transform="translate(238 42.3)" fill="#000" fill-rule="nonzero"><path d="M57.8 32.7v-2.3h1.6a3.9 3.9 0 000-7.8h-1.6v-4.4h-2.2v4.4h-2.7l-2-3.8c0-.4-.5-.6-.9-.6H37.1l-4.8-4.9c2.6-1 4.4-3.4 4.4-6.2H40V4.8h-3.7a6.7 6.7 0 10-10 7.9c-1.6 1-3 3-3 6.6v12.2h-2.2V20.4c0-.6-.5-1.1-1.1-1.1h-2.8a6.4 6.4 0 001.7-4.5h-2.2c0 2-1.4 3.9-3.4 4.4-2-.5-3.3-2.3-3.3-4.4H7.8c0 1.7.6 3.3 1.7 4.5H6.7c-.6 0-1.1.5-1.1 1.1v11.2a3.9 3.9 0 00.5 7.7h4.2c-.7 1-1 2.1-1 3.3H4.3v2.2h5c-3.8 2.5-6 6.7-6 11.2 0 .6.4 1 1 1H9c.2 1.8 1 3.3 2.2 4.5H5.6v2.2h11c4 0 7.2-2.8 7.8-6.6h21.2c.3 1.7 1 3.2 2.3 4.4h-5.7v2.2h11.1c3.9 0 7.2-2.8 7.7-6.6h3.4c.7 0 1.2-.5 1.2-1.1v-2.1c0-6 .2-15.1-3.8-19.2-1.1-1.1-2.5-1.8-4-2zm0-7.9h1.6a1.7 1.7 0 010 3.4h-1.6v-3.4zm-2.2 0v3.4h-6l-1.3-3.4h7.3zm0 5.6v2.2h-2.3v-2.2h2.3zm-7.8-10h1.5l1.1 2.2h-2.6v-2.2zM30 11.5h-.2l.3-.4a6.1 6.1 0 001.1-4h3.2c0 2.4-2 4.4-4.4 4.4zm0-8.9c1.6 0 3 .9 3.8 2.2h-7.6A4.4 4.4 0 0130 2.6zm-4.4 4.5H29c.1.9-.1 1.8-.6 2.6-.4.4-.8.6-1.3.7-1-.9-1.5-2-1.5-3.3zm0 12.2c0-4.5 2.8-5.4 4-5.5l6.3 6.3c.2.2.5.3.8.3h8.9v2.2H34.9l-5.2-5.2L28 19l4.1 4v8.6h-6.6V19.2zM41 44.8l-3.3-8.1c-.2-.5-.6-.7-1-.7h-1.2c.1-.8 0-1.6-.3-2.3h1.7c1.4 0 2.6.9 3.1 2.2l3.4 8.9H41zm3.2 2.2l.9 2.3h-2.3l-1-2.3h2.4zm-8.3-8.8l4.5 11h-3l-3.8-10.5.8-.5h1.5zM19 22.8v8.7h-4.5v-5l4.5-3.7zm-2-1.3l-3.6 3-3.6-3H17zm-9.1 1.3l4.4 3.7v5H7.8v-8.7zM6 37a1.7 1.7 0 010-3.4h25.6a1.7 1.7 0 010 3.4H6zm10.6 24.4c-2.7 0-5-1.8-5.5-4.4h4.4v2.2h2.2V57H22a5.6 5.6 0 01-5.4 4.4zm-5.5-6.7a5.6 5.6 0 0111 0h-11zm13.2 0a7.8 7.8 0 00-15.4 0H5.6a11.1 11.1 0 0122.1 0h-3.3zm21.2 0H29.9c-.3-4-2.5-7.7-5.9-10H29v-2.2H16.7c-1.8 0-3.5.4-5.1 1a3.3 3.3 0 013.2-4.3h16.6l4.2 11.5c.2.4.6.7 1 .7h9v3.3zm0-16.6v6l-3.5-9a5.6 5.6 0 00-5.2-3.7h-2.5v-6.7H46l2 4.9c.1.4.5.7 1 .7H51v2.2c-3 0-5.5 2.5-5.5 5.6zm7.7 23.3c-2.6 0-4.9-1.8-5.4-4.4h4.3v2.2h2.2V57h4.4a5.6 5.6 0 01-5.5 4.4zm10-7.6v1H58c0-.5.4-1 .7-1.2 1.2-1 3.3-1.2 4.7-1.2V54zm-.2-9H60a1.1 1.1 0 110-2.3h2.8l.3 2.2zM60 40.3c-1.4 0-2.7.9-3.1 2.2h-3.6v2.2H57a3.3 3.3 0 003.1 2.3h3.3v3.2c-1.5 0-4.3.1-6 1.7-.9.7-1.5 1.7-1.6 2.8h-8V38.2c0-1.9 1.6-3.4 3.4-3.4h5.6c1.3 0 2.6.5 3.5 1.5 1 1.1 1.8 2.6 2.1 4.1H60z" id="Shape"/><path id="Rectangle" d="M0 61.5h3.3v2.2H0zM37.8 61.5H40v2.2h-2.2zM30 61.5h4.4v2.2H30zM0 42.6h2.2v2.2H0z"/></g><g id="labels"><g id="text1" transform="translate(0 1)"><text id="Hotels-&amp;-kitchen-sta" transform="rotate(-24 50 38)" font-family="MarkerFelt-Thin, Marker Felt" font-size="13" font-weight="300" letter-spacing="-.1" fill="#FF3939"><tspan x="7.9" y="28">Hotels &amp; kitchen</tspan> <tspan x="6.9" y="42">staff that aren’t </tspan> <tspan x="29.5" y="56">at work</tspan></text><path id="Line" d="M82.3 45.4l.4.1 17 6.1 1.4-3.7 7 7.3-10 1.2 1.3-3.8-17-6.1-.5-.2.4-1z" fill="#FE4343" fill-rule="nonzero"/></g><g id="text3" transform="translate(425)"><text id="Tired-NHS-staff-can’" transform="rotate(30 61.5 41)" font-family="MarkerFelt-Thin, Marker Felt" font-size="13" font-weight="300" letter-spacing="-.1" fill="#FF4141"><tspan x="21.8" y="31">Tired NHS staff </tspan> <tspan x="16.8" y="45">can’t get to shops</tspan> <tspan x="32.6" y="59">&amp; need help</tspan></text><path id="Line-Copy" d="M.2 46.3l.5.2 17 6.1L19 49l7 7.2-10 1.2 1.3-3.7-17-6.2-.4-.1.3-1z" fill="#FE4343" fill-rule="nonzero"/></g><g id="text2" transform="translate(202.4 11.4)"><text id="Frozen-meals" transform="rotate(-14 34.5 15)" font-family="MarkerFelt-Thin, Marker Felt" font-size="13" font-weight="300" letter-spacing="-.1" fill="#FF4141"><tspan x="1.1" y="19">Frozen meals</tspan></text><path id="Line-Copy-2" d="M36 21.9l.2.4 4.7 11.2 3.6-1.6-.6 10-7.7-6.5 3.7-1.6-4.7-11-.2-.5 1-.4z" fill="#FE4343" fill-rule="nonzero"/></g></g></g></g></g></svg>
