<?xml version="1.0" encoding="UTF-8"?>
<svg width="118px" height="127px" viewBox="0 0 118 127" version="1.1" xmlns="http://www.w3.org/2000/svg" xmlns:xlink="http://www.w3.org/1999/xlink">
    <!-- Generator: Sketch 63.1 (92452) - https://sketch.com -->
    <title>Desktop HD Copy</title>
    <desc>Created with Sketch.</desc>
    <g id="Page-1" stroke="none" stroke-width="1" fill="none" fill-rule="evenodd">
        <g id="Desktop-HD" transform="translate(-464.000000, -427.000000)" fill="#000000" fill-rule="nonzero">
            <g id="noun_Driver_1125178" transform="translate(490.000000, 447.341949)">
                <path d="M38.2854538,23.2170925 C38.2854538,22.4104519 38.9393234,21.7565212 39.7459641,21.7565212 C40.5526048,21.7565212 41.2064744,22.4104519 41.2064744,23.2170925 C41.2064744,24.023735 40.5526048,24.6776047 39.7459641,24.6776047 C38.9393234,24.6776047 38.2854538,24.023735 38.2854538,23.2170925 Z M28.591423,70.8019943 L28.2974777,70.633049 L21.7623214,73.7150803 L22.0743331,74.3146897 C23.8356856,77.7000657 27.1152877,80.0995408 30.8593062,80.7609788 C30.895378,80.7673265 30.9298018,80.7793504 30.9659346,80.7853929 L31.7232588,80.912346 L31.7232588,80.7609788 L31.7232588,71.7795335 L31.183708,71.6867601 C30.2012863,71.5178146 29.3052902,71.2121506 28.591423,70.8019943 Z M37.4088058,70.8029709 C36.693962,71.2121506 35.7974777,71.5178147 34.8165206,71.68676 L34.2769698,71.7795334 L34.2769698,80.7609787 L34.2769698,80.9123459 L35.034294,80.7853928 C35.0704268,80.7793503 35.1048506,80.7673264 35.1409224,80.7609787 C38.8854292,80.0995407 42.1640547,77.7000656 43.9254073,74.3146896 L44.2379073,73.7150802 L37.702751,70.6340255 L37.4088058,70.8029709 Z M32.6280441,29.3698654 L33.9512863,29.3698654 C34.3653488,29.3698654 34.7012863,29.0339279 34.7012863,28.6198654 C34.7012863,28.2058029 34.3653488,27.8698654 33.9512863,27.8698654 L32.7984543,27.8698654 L32.7984543,25.9372482 C32.7984543,25.5231857 32.4625168,25.1872482 32.0484543,25.1872482 C31.6343918,25.1872482 31.2984543,25.5231857 31.2984543,25.9372482 L31.2984543,28.0397873 C31.2984543,28.7731857 31.895134,29.3698654 32.6280441,29.3698654 Z M65.2779465,63.898674 C64.7086106,65.539299 63.2916184,66.7385178 61.5797043,67.0266037 L51.8775559,68.6629562 C51.4122239,69.180046 50.7965622,69.5576706 50.079033,69.7249069 C49.9229051,72.2252121 49.2434007,74.5841598 48.1248094,76.6823044 L48.1248094,79.7609787 C48.1248094,80.3132248 47.6771165,80.7609787 47.1248094,80.7609787 L45.1095506,80.7609787 C42.0070726,83.8636398 37.7236253,85.7853928 33.0001146,85.7853928 C28.2761156,85.7853928 23.9925462,83.8636399 20.8900682,80.7609787 L18.8748094,80.7609787 C18.3225633,80.7609787 17.8748094,80.3132248 17.8748094,79.7609787 L17.8748094,76.6821823 C16.7562791,74.5840988 16.0767747,72.225151 15.9207078,69.7248459 C15.2029954,69.5576096 14.5871507,69.179924 14.1217576,68.6629563 L4.4200364,67.0266038 C2.7086106,66.7385179 1.2906419,65.5392991 0.7222825,63.8986741 C0.1534348,62.2590257 0.5250169,60.4396897 1.6905442,59.1535569 L16.6441575,42.6545335 C17.6722337,41.5201951 19.122429,41.0168992 20.5389939,41.1284715 L23.4338303,41.094597 L24.4908371,39.5851976 C24.8979416,39.0039598 25.6999435,38.8722459 26.3985519,39.2112352 L26.3985519,37.2430956 C23.4656295,35.5148241 21.6908493,32.6987841 20.6270675,29.3119433 C20.4980392,29.335686 20.3665084,29.3474047 20.2335128,29.3474047 C19.7017745,29.3474047 19.1461105,29.1589281 18.6324386,28.7936938 C17.9459152,28.304436 17.3731613,27.5368579 17.0211105,26.632561 C16.6685714,25.7272876 16.5709152,24.7751391 16.7462082,23.9499419 C16.9429855,23.0246489 17.4791184,22.3293364 18.2169113,22.0422271 C18.28405,22.0159209 18.3568649,22.0121978 18.4260177,21.9931548 C17.9539108,19.7632964 16.3109664,10.3404448 20.8443527,4.7570708 C23.1583175,1.9069731 26.6822433,0.5378325 31.2984543,0.7004302 C31.4200363,0.7043365 31.5372238,0.7316802 31.645134,0.7785552 C37.5220871,0.0808013 41.9293137,1.3439849 44.7584153,4.5295318 C49.6410447,10.0275157 48.150322,19.4219859 47.6221238,22.0041412 C47.6752854,22.0201934 47.731804,22.0217804 47.7838059,22.0422271 C49.2359543,22.6081451 49.7603684,24.6242603 48.9791184,26.6320728 C48.6265793,27.536858 48.0543137,28.3044361 47.3668137,28.7936939 C46.8531418,29.1589283 46.2974778,29.3474048 45.7652512,29.3474048 C45.6348801,29.3474048 45.5057908,29.3355029 45.3788987,29.3126148 C44.3157273,32.7133106 42.5393601,35.5381397 39.6011887,37.264336 L39.6011887,39.2111744 C40.2994919,38.871941 41.1022873,39.0027393 41.5093918,39.5866627 L42.565361,41.0945973 L45.4587936,41.1282887 C46.8757858,41.0158619 48.3269577,41.5190358 49.3560714,42.6545338 L64.3091964,59.1535572 C65.4752121,60.4396896 65.8463058,62.2590256 65.2779465,63.898674 Z M45.7848434,27.8456345 C46.0645675,27.8417282 46.3384323,27.6849289 46.4966964,27.5715256 C46.9420089,27.2546311 47.3375167,26.7141037 47.5806808,26.0876389 C48.0679855,24.8381272 47.8023605,23.6589261 47.2388839,23.4396878 C47.1617355,23.4099026 47.0826339,23.396719 47.0035323,23.396719 C46.8383101,23.396719 46.6774825,23.4537869 46.537651,23.5229397 C46.3664474,25.018486 46.1233444,26.4686813 45.7848434,27.8456345 Z M20.2191086,27.8446579 C19.8801193,26.4717941 19.636528,25.0262375 19.4648361,23.5355129 C19.2990036,23.4548244 19.1370773,23.3986721 18.9923019,23.3986721 C18.9097824,23.3986721 18.8321456,23.412344 18.7613449,23.4396877 C18.407341,23.577383 18.2662277,24.0139084 18.2134933,24.2619552 C18.100212,24.7961349 18.1749191,25.4616622 18.4185714,26.0881271 C18.662712,26.7141037 19.0577316,27.254631 19.5025558,27.5715255 C19.66259,27.6854172 19.9388962,27.8418503 20.2191086,27.8446579 Z M39.6011887,40.9526901 L39.3817673,41.0945968 L38.8514939,41.4374923 L36.7799607,42.7770919 L35.2096482,43.7925948 L33.8873215,44.6476973 C33.8658371,44.6613692 33.8492356,44.6755293 33.8370285,44.6882246 L36.0845871,47.8986738 C36.1236496,47.8928144 36.1841965,47.8732832 36.238884,47.8215254 L41.8043137,42.6457441 C41.80822,42.6428144 41.8111496,42.6398847 41.8140793,42.6364668 L40.7341843,41.0945967 L40.3267746,40.5129317 C40.2984543,40.5163497 40.2574387,40.5280684 40.2125168,40.5573653 L39.6011887,40.9526901 Z M34.6840744,42.3460007 L36.6192551,41.0945969 L38.1011887,40.1362839 L38.1011887,38.0090866 C36.6581955,38.5994186 34.9852829,38.9691696 33.0377121,39.0681076 C31.058342,38.968193 29.3599167,38.5929489 27.8985519,37.9918747 L27.8985519,40.1362839 L29.3804855,41.0945969 L31.3155441,42.3459397 L32.5991134,43.1759568 L32.9268722,43.3879319 C32.9533004,43.4050217 32.9745407,43.4272996 32.9998702,43.4456101 C33.0251998,43.4272996 33.046379,43.4050217 33.0728682,43.3879319 L33.400627,43.1759568 L34.6840744,42.3460007 Z M26.610527,35.5665207 C26.9618454,35.8127976 27.3403854,36.0291061 27.7311325,36.231987 C29.2019577,36.9957199 30.9442673,37.4637375 33.0377121,37.5700607 C35.1359177,37.4626999 36.8784714,36.985588 38.3480759,36.2084274 C38.7136765,36.0151291 39.0714646,35.8132858 39.402153,35.5812301 C41.6384201,34.0117721 43.0864792,31.5577926 44.0059128,28.4075851 C44.1114426,28.0460128 44.2148972,27.6811447 44.3066941,27.3012008 C44.5500413,26.2936324 44.7497483,25.2265548 44.9058762,24.0962447 C44.9664841,23.6574611 45.0157395,23.2014064 45.0646286,22.7451686 C45.087944,22.5280665 45.1144333,22.3159694 45.1351852,22.0949611 L44.4898605,21.2048244 C40.1607589,18.8757228 38.0377121,15.1667385 37.0923996,12.9025783 C34.6422043,15.7048244 30.6685715,15.6525783 30.4713058,15.6496486 C30.0396652,15.639883 29.6685714,15.3400783 29.5684738,14.9201564 C29.5430832,14.811758 29.5367355,14.7028712 29.5484543,14.5974025 C27.2125168,15.5139064 25.0030441,15.6403713 24.8370285,15.648672 C24.5181808,15.6696681 24.2027512,15.5109767 24.0186691,15.2551173 C22.8453293,15.7956446 21.8497238,16.011465 21.3887863,16.0891017 C21.0825729,16.8363551 20.825798,17.7483424 20.6503219,18.8467311 C20.7080001,20.207754 20.8027877,21.5067042 20.9360275,22.7460231 C20.9851608,23.2029933 21.0347213,23.6597194 21.0956344,24.0991744 C21.2518844,25.2258223 21.4517745,26.2895431 21.6951827,27.2941817 C21.7872848,27.6742476 21.8909835,28.0392989 21.9968795,28.4009932 C22.917778,31.5452805 24.3693161,33.9955368 26.610527,35.5665207 Z M24.1944504,42.645256 L29.7593918,47.8215255 C29.8155441,47.8732833 29.8765793,47.8928146 29.9156418,47.8986739 L32.1627121,44.6882247 C32.1505051,44.6755294 32.1339035,44.6613692 32.1124191,44.6476974 L30.7900314,43.7925338 L29.2197189,42.7770919 L27.1483688,41.4375533 L26.6179733,41.0945968 L26.3985519,40.9526901 L25.7872238,40.5573654 C25.7413254,40.5275802 25.7003097,40.5163498 25.6724777,40.5124435 L25.2648849,41.0945968 L24.1944504,42.645256 Z M20.0889206,59.5173264 L21.5557785,59.7512131 C22.3398361,59.875969 23.0121994,60.2617722 23.5230026,60.7952805 C25.7839889,58.072136 29.1923752,56.3342209 33.0001144,56.3342209 C36.8071823,56.3342209 40.2154464,58.0720749 42.4764328,60.7950974 C42.9870529,60.2617112 43.6592331,59.875969 44.4429855,59.7512131 L45.9103317,59.5176926 C43.03936,55.4710617 38.3279953,52.8176194 33.0001144,52.8176194 C27.6718063,52.8176194 22.9601364,55.4709396 20.0889206,59.5173264 Z M14.5577316,59.1027756 L16.0726852,59.3583298 C16.6238327,59.1497116 17.228569,59.0626145 17.8507003,59.1603928 L17.8748092,59.164238 L17.8748092,55.4429856 L14.5577316,59.1027756 Z M17.1772385,68.4319382 L17.8748093,68.5428391 L20.0380173,68.8866501 L20.1011887,68.8967209 C20.1011887,68.8967209 20.1011887,68.8967209 20.101677,68.8967209 C20.3036423,68.9288864 20.500969,68.9199753 20.6935349,68.8927536 C20.9204026,68.8606491 21.1365281,68.7939987 21.3352585,68.6906662 C21.5248947,68.5920334 21.6987229,68.466301 21.848259,68.3134079 L21.3546677,68.2349167 L21.1792527,68.2069626 L20.7100144,68.1323166 L18.3140793,67.7512131 C18.1338425,67.7228318 17.9861984,67.6253586 17.8748093,67.4979782 C17.7332688,67.336174 17.6547165,67.1217575 17.6910324,66.8928146 C17.7137985,66.7497482 17.78582,66.6310348 17.8748093,66.5281295 C18.0397263,66.3374557 18.2861863,66.2238082 18.5494309,66.2707442 L20.8629685,66.6387862 L21.5040818,66.7407759 L22.1451951,66.8427046 L22.3101731,66.8689497 L22.4501877,66.8912886 L22.5277023,66.4039229 L22.5728683,66.1196822 L22.2999191,66.0762862 L21.6559372,65.9738692 L21.0118942,65.8713912 L18.6724777,65.4992599 C18.263298,65.4348068 17.9844894,65.0500411 18.0494308,64.6408615 C18.1143722,64.2326584 18.5001144,63.9514084 18.9078292,64.0187912 L21.4473189,64.4227829 L22.1007613,64.5267258 L22.7540206,64.6306076 L22.8081588,64.6392136 L22.8517379,64.3648606 L22.8929977,64.1054612 L22.9309005,63.8667527 L22.8593063,63.8553391 L22.4113693,63.7841111 L21.7418136,63.6776048 L19.0303878,63.2463304 C18.6581954,63.1876756 18.4076461,62.8615037 18.4117965,62.4955369 C18.4122237,62.4591599 18.4014816,62.4249192 18.4073409,62.3879319 C18.4384078,62.193657 18.5457076,62.0320969 18.6896285,61.919365 C18.8487472,61.7946702 19.053398,61.7304612 19.2657393,61.7658616 L22.3236617,62.2522508 L22.4811934,62.2772752 L22.7994917,62.3279344 C22.7493208,62.226555 22.6939009,62.1277391 22.6276777,62.0363695 C22.3902509,61.7086717 22.0524824,61.4567186 21.6537397,61.3199999 C21.5460737,61.2830736 21.4360883,61.2501757 21.3199384,61.231682 L19.2103803,60.8958055 L18.5178754,60.785515 L17.874809,60.683159 L17.8466718,60.6787034 L17.6153486,60.6418382 C17.5093916,60.6252366 17.4039228,60.6174241 17.2999189,60.6174241 C16.3321455,60.6174241 15.477165,61.3225022 15.3204267,62.3078538 L14.7310712,66.0129319 C14.5862958,66.9238816 15.0880658,67.7854539 15.8918378,68.1483689 C16.0505292,68.2200242 16.2166059,68.2791672 16.3965985,68.3078538 L16.5324628,68.3294602 L17.1772385,68.4319382 Z M48.7664108,69.9588547 L48.1248092,70.0608444 L46.1343917,70.3771896 C45.9488448,70.407463 45.7632979,70.4211349 45.5816573,70.4211349 C45.4452437,70.4211349 45.3129805,70.400505 45.1796798,70.38488 C45.1786422,70.3922042 45.1783981,70.3981246 45.1773605,70.4055099 L45.0523605,71.2756271 L39.0338058,68.4377365 L38.9478683,68.1682052 C38.4586105,66.6408614 35.9009933,65.4894943 32.9996261,65.4894943 C30.0987472,65.4894943 27.54113,66.6408615 27.0513839,68.1682052 L26.9649581,68.4377365 L20.94738,71.2756271 L20.82238,70.4055099 C20.8213424,70.3981246 20.8210983,70.3922042 20.8200607,70.38488 C20.686943,70.400444 20.5548019,70.4211349 20.4185714,70.4211349 C20.2364425,70.4211349 20.0513839,70.407463 19.865837,70.3771896 L17.8748092,70.0607223 L17.2323531,69.9586105 C17.3282393,71.1239547 17.5392379,72.2568893 17.8748092,73.3376999 C18.7844161,76.2672653 20.527214,78.8305588 22.8199996,80.7609787 C25.5750655,83.0805588 29.1249923,84.4846115 33.0001143,84.4846115 C36.8748091,84.4846115 40.4244917,83.0805588 43.1792525,80.7609787 C45.4726485,78.8298874 47.2155074,76.2654343 48.1248091,73.3345871 C48.4597702,72.2548141 48.6705856,71.1229782 48.7664108,69.9588547 Z M51.2681808,66.0119553 L50.6793136,62.3078537 C50.5953292,61.7785568 50.310173,61.3146896 49.8765792,61.0002365 C49.5308761,60.7482834 49.1226729,60.617424 48.7027511,60.617424 C48.5972823,60.617424 48.490837,60.6252365 48.3843917,60.6428146 L48.1533736,60.6795578 L48.1248091,60.6840744 L47.482231,60.7861862 L46.7888716,60.8964157 L44.6793135,61.2316818 C44.5631026,61.2501755 44.4531782,61.2830734 44.3455122,61.3199997 C43.9469526,61.4567795 43.6092451,61.7086716 43.3719404,62.0363693 C43.3057783,62.1277389 43.2503584,62.2264938 43.2002485,62.3278732 L43.5184248,62.2772751 L43.6757124,62.2522507 L46.7330244,61.7658615 C46.9456098,61.730339 47.148918,61.7921677 47.3068159,61.914299 C47.452873,62.0272751 47.560478,62.1913376 47.5914228,62.3879318 C47.5973432,62.4249191 47.5866621,62.4592209 47.5870893,62.4955978 C47.5916669,62.8615646 47.3415449,63.1876754 46.9693525,63.2463302 L44.2578657,63.6777267 L43.5884321,63.784233 L43.1401899,63.8555221 L43.0683515,63.8669357 L43.1064374,64.1063766 L43.1476972,64.3662033 L43.1910932,64.6391525 L43.2448041,64.6306076 L43.8989179,64.5266037 L44.5522992,64.4226608 L47.0914227,64.0187912 C47.5035321,63.9504318 47.885368,64.2316818 47.9498211,64.6408615 C48.0152508,65.0500412 47.7369305,65.4348068 47.3277508,65.4992599 L44.987846,65.8714523 L44.343803,65.9738693 L43.6989666,66.0764694 L43.4264446,66.1198044 L43.4715496,66.4035568 L43.5490032,66.8911667 L43.6890178,66.8689499 L43.8536296,66.8427658 L44.4955974,66.740654 L45.1367107,66.6386643 L47.4498211,66.2707444 C47.7156902,66.2239304 47.9608685,66.3366624 48.1248089,66.5266648 C48.2137982,66.6297532 48.2855755,66.7488938 48.3082195,66.8928147 C48.3448406,67.1219407 48.2663494,67.3365403 48.1248089,67.4983445 C48.0135418,67.6255418 47.8662029,67.7228318 47.6861492,67.7512132 L45.2897259,68.1323778 L44.8198773,68.2071459 L44.6450116,68.2349169 L44.1522748,68.313286 C44.3016889,68.4656908 44.4753339,68.591057 44.6644818,68.6895067 C44.8634564,68.7930834 45.0795819,68.8599779 45.3062665,68.8922655 C45.4990155,68.9197313 45.6964032,68.9287645 45.8980634,68.8967211 L45.9610517,68.8867113 L48.124809,68.5428392 L48.8215253,68.4320604 L49.4671552,68.3294603 L49.6031415,68.3078539 C49.7831342,68.2791674 49.9492108,68.2199633 50.1079022,68.148308 C50.9116745,67.7853928 51.4133224,66.9237595 51.2681808,66.0119553 Z M51.442009,59.1027756 L48.1248093,55.4426193 L48.1248093,59.1652145 L48.1490403,59.1613693 C48.7636033,59.0610885 49.3718186,59.1412887 49.9356004,59.3568649 L51.442009,59.1027756 Z M32.9996262,34.3029709 C34.7740403,34.3029709 36.6705246,33.8713303 36.6705246,32.6599045 C36.6705246,32.245842 36.3345871,31.9099045 35.9205246,31.9099045 C35.5855637,31.9099045 35.3028488,32.1286545 35.2061691,32.4313889 C34.9551925,32.5798264 34.1666183,32.8029709 32.9996261,32.8029709 C31.8326339,32.8029709 31.0440597,32.5798264 30.7930831,32.4313889 C30.6964034,32.1286545 30.4132003,31.9099045 30.0787276,31.9099045 C29.6646651,31.9099045 29.3287276,32.245842 29.3287276,32.6599045 C29.3287276,33.8713303 31.2252121,34.3029709 32.9996262,34.3029709 Z M27.7142258,23.2170925 C27.7142258,22.4104519 27.0602951,21.7565212 26.2537155,21.7565212 C25.4470749,21.7565212 24.7931442,22.4104519 24.7931442,23.2170925 C24.7931442,24.023735 25.4470749,24.6776047 26.2537155,24.6776047 C27.0602951,24.6776047 27.7142258,24.023735 27.7142258,23.2170925 Z" id="Shape"></path>
            </g>
        </g>
    </g>
</svg>